<?xml version="1.0" encoding="UTF-8" standalone="no"?>
<!-- Created with Inkscape (http://www.inkscape.org/) -->

<svg
   width="400mm"
   height="280mm"
   viewBox="0 0 400 280"
   version="1.1"
   id="svg5"
   xml:space="preserve"
   inkscape:export-filename="bitmap.png"
   inkscape:export-xdpi="59.878956"
   inkscape:export-ydpi="59.878956"
   inkscape:version="1.2 (dc2aedaf03, 2022-05-15)"
   sodipodi:docname="levels-design1.svg"
   xmlns:inkscape="http://www.inkscape.org/namespaces/inkscape"
   xmlns:sodipodi="http://sodipodi.sourceforge.net/DTD/sodipodi-0.dtd"
   xmlns="http://www.w3.org/2000/svg"
   xmlns:svg="http://www.w3.org/2000/svg"><sodipodi:namedview
     id="namedview7"
     pagecolor="#505050"
     bordercolor="#ffffff"
     borderopacity="1"
     inkscape:showpageshadow="0"
     inkscape:pageopacity="0"
     inkscape:pagecheckerboard="1"
     inkscape:deskcolor="#505050"
     inkscape:document-units="px"
     showgrid="true"
     showborder="false"
     inkscape:zoom="0.35355339"
     inkscape:cx="237.58788"
     inkscape:cy="523.25902"
     inkscape:window-width="2560"
     inkscape:window-height="1494"
     inkscape:window-x="-11"
     inkscape:window-y="-11"
     inkscape:window-maximized="1"
     inkscape:current-layer="layer1"
     showguides="false" /><defs
     id="defs2"><rect
       x="350.43127"
       y="297.72412"
       width="5.6980696"
       height="12.820656"
       id="rect15066" /></defs><g
     inkscape:label="Layer 1"
     inkscape:groupmode="layer"
     id="layer1"><text
       xml:space="preserve"
       transform="scale(0.26458333)"
       id="text15064"
       style="white-space:pre;shape-inside:url(#rect15066);display:inline;fill:#c8b7b7;fill-opacity:1;stroke-width:13.3569;stroke-dasharray:none" /><path
       id="path20381"
       style="fill:none;fill-opacity:1;stroke:#e69f00;stroke-width:5.29167;stroke-dasharray:none;stroke-opacity:1"
       d="m 83.043808,-268.98094 a 95.25,95.25 0 0 1 78.845782,93.82678 v 0 a 95.25,95.25 0 0 1 -95.250002,95.25 95.25,95.25 0 0 1 -95.25,-95.25 95.25,95.25 0 0 1 78.843,-93.82629"
       inkscape:export-filename="..\..\..\..\..\..\..\..\..\Downloads\lvl1.png"
       inkscape:export-xdpi="130.70624"
       inkscape:export-ydpi="130.70624" /><path
       id="path26281"
       style="fill:none;fill-opacity:1;stroke:#e69f00;stroke-width:5.29167;stroke-dasharray:none;stroke-opacity:1"
       d="m 316.42992,-218.45684 a 46.333025,46.689747 0 0 1 29.92801,43.66518 v 0 a 46.333025,46.689747 0 0 1 -46.33304,46.68974 46.333025,46.689747 0 0 1 -46.33301,-46.68974 46.333025,46.689747 0 0 1 29.91814,-43.66141 m 0.0107,138.588441 A 95.25,95.25 0 0 1 204.77495,-173.6914 v 0 a 95.25,95.25 0 0 1 95.24999,-95.25 95.25,95.25 0 0 1 95.25,95.25 95.25,95.25 0 0 1 -78.843,93.826281"
       inkscape:export-filename="..\..\..\..\..\..\..\..\..\Downloads\lvl2.png"
       inkscape:export-xdpi="130.70624"
       inkscape:export-ydpi="130.70624" /><path
       id="path26330"
       style="fill:#000000;fill-opacity:0;stroke:#e69f00;stroke-width:5.29167;stroke-dasharray:none;stroke-opacity:1"
       d="m -142.44172,14.227575 a 30.461996,30.701549 0 0 1 14.05687,25.86905 v 0 a 30.461996,30.701549 0 0 1 -30.462,30.70153 30.461996,30.701549 0 0 1 -30.46199,-30.70153 30.461996,30.701549 0 0 1 14.04919,-25.86409 m 50.6318,81.03065 a 63.070509,62.572196 42.944367 0 1 -76.0068,-7.67097 v 0 a 63.070509,62.572196 42.944367 0 1 -3.53889,-88.7730098 63.070509,62.572196 42.944367 0 1 88.79825,-2.83463 63.070509,62.572196 42.944367 0 1 13.10421,75.2540198 M -245.60949,-0.66624485 A 95.25,95.25 0 0 1 -134.15851,-51.644635 v 0 A 95.25,95.25 0 0 1 -67.749003,65.551355 95.25,95.25 0 0 1 -184.945,131.96086 95.25,95.25 0 0 1 -254.35635,30.957625"
       inkscape:export-filename="..\..\..\..\..\..\..\..\..\Downloads\lvl3.png"
       inkscape:export-xdpi="130.70624"
       inkscape:export-ydpi="130.70624" /><circle
       style="fill:#e69f00;fill-opacity:1;stroke-width:6.89599;stroke-dasharray:none"
       id="circle23063-9-5-8-5"
       cx="-159.54373"
       cy="-174.42279"
       r="95.25" /><path
       sodipodi:type="spiral"
       style="fill:#000000;fill-opacity:0;fill-rule:evenodd;stroke:#e69f00;stroke-width:7.23958;stroke-dasharray:none;stroke-opacity:1"
       id="path23150"
       sodipodi:cx="67.204163"
       sodipodi:cy="-176.21249"
       sodipodi:expansion="1.01"
       sodipodi:revolution="3.2812967"
       sodipodi:radius="129.55118"
       sodipodi:argument="-17.769745"
       sodipodi:t0="0"
       d="m 67.204163,-176.21249 c 2.718838,5.08522 -5.553045,6.16835 -8.483182,4.53557 -8.063266,-4.49315 -6.114822,-15.97121 -0.651054,-21.61995 9.826005,-10.15865 26.393026,-6.68766 34.864914,3.32736 12.479159,14.7522 7.315369,37.01753 -7.33514,48.16343 -19.582034,14.89773 -47.732207,7.96966 -61.499627,-11.36062 -17.3643121,-24.38054 -8.638556,-58.49989 15.398673,-74.86509 29.167687,-19.85816 69.303763,-9.3162 88.254533,19.44645 22.3693,33.95117 9.99951,80.13469 -23.50214,101.6643 -38.734355,24.892369 -90.987032,10.686738 -115.091728,-27.56448 -27.424174,-43.51884 -11.376806,-101.85706 31.632577,-128.53478 48.305377,-29.96269 112.742121,-12.06902 141.991811,35.70573 32.50658,53.09437 12.76292,123.64026 -39.78339,155.461535 -57.885962,35.054888 -134.549968,13.45818 -168.942857,-43.865125 -4.35334,-7.2558 -7.984978,-14.94251 -10.832988,-22.9102"
       transform="matrix(0.73093543,0,0,0.73093543,22.03785,161.71833)"
       inkscape:export-filename="..\..\..\..\..\..\..\..\..\Downloads\lvl4.png"
       inkscape:export-xdpi="151.05304"
       inkscape:export-ydpi="151.05304" /><path
       style="fill:none;fill-opacity:1;stroke:none;stroke-width:5.29167;stroke-dasharray:none;stroke-opacity:1"
       d="m 412.22083,-83.608332 c -1.5875,81.4916654 -1.5875,81.4916654 -1.5875,81.4916654"
       id="path26563" /><path
       style="fill:none;fill-opacity:1;stroke:none;stroke-width:5.45041719;stroke-dasharray:none;stroke-opacity:1"
       d="m 426.50833,-96.837499 1.5875,95.249999"
       id="path26565" /><path
       id="rect26569-5-1-8"
       style="fill:none;stroke:#e69f00;stroke-width:5.29043"
       d="m 379.14189,5.0929334 1.8e-4,9.83e-4 -11.96755,2.221989 -1.8e-4,-9.83e-4 z m -124.26103,-24.6336854 4.9e-4,-8.74e-4 10.59993,5.983381 -4.9e-4,8.76e-4 z m 68.49407,62.475314 2.8e-4,-9.7e-4 11.72452,3.27033 -2.7e-4,9.6e-4 z m 7.23947,59.287958 8.9e-4,-4.5e-4 5.4899,10.86373 -8.9e-4,4.6e-4 z M 300.15547,28.292832 c 3.27662,6.12851 -6.69231,7.43386 -10.22359,5.4661 -9.71752,-5.41501 -7.36934,-19.247866 -0.78463,-26.0555006 11.8419,-12.2428122 31.80781,-8.05971133 42.0178,4.0099926 15.03938,17.778758 8.81619,44.612048 -8.84001,58.044648 -23.59949,17.95415 -57.52496,9.60472 -74.11691,-13.69135 -20.92678,-29.38247 -10.41084,-70.501752 18.55787,-90.224442 35.15174,-23.932256 83.52213,-11.227507 106.36084,23.436075 26.95858,40.916617 12.05103,96.575147 -28.32383,122.521775 -42.95523,27.60488 -100.82077,15.55678 -132.0871,-23.877648"
       inkscape:export-filename="..\..\..\..\..\..\..\..\..\Downloads\lvl5.png"
       inkscape:export-xdpi="142.26611"
       inkscape:export-ydpi="142.26611" /><g
       id="g5845"
       transform="matrix(1.5354296,0,0,1.5359144,-597.97246,303.68045)"
       style="fill:#000000;fill-opacity:0;stroke-width:2.58437353;stroke-dasharray:none"
       inkscape:export-filename="Levels\lvl6.png"
       inkscape:export-xdpi="131.05823"
       inkscape:export-ydpi="131.05823"><g
         fill="none"
         stroke="#000000"
         stroke-width="2"
         stroke-linecap="square"
         id="g284"
         style="fill:#000000;fill-opacity:0;stroke:#e69f00;stroke-width:2.99813714;stroke-dasharray:none;stroke-opacity:1"
         transform="matrix(0.8619931,0,0,0.8619931,219.88733,52.30872)"><path
           d="M 58.029437,91.970563 A 24,24 0 1 1 75,99"
           id="path264"
           style="fill:#000000;fill-opacity:0;stroke:#e69f00;stroke-width:2.99813714;stroke-dasharray:none;stroke-opacity:1" /><path
           d="M 46.715729,46.715729 A 40,40 0 0 1 115,75"
           id="path266"
           style="fill:#000000;fill-opacity:0;stroke:#e69f00;stroke-width:2.99813714;stroke-dasharray:none;stroke-opacity:1" /><path
           d="M 111.95518,90.307337 A 40,40 0 0 1 75,115"
           id="path268"
           style="fill:#000000;fill-opacity:0;stroke:#e69f00;stroke-width:2.99813714;stroke-dasharray:none;stroke-opacity:1" /><path
           d="M 59.692663,111.95518 A 40,40 0 0 1 46.715729,103.28427"
           id="path270"
           style="fill:#000000;fill-opacity:0;stroke:#e69f00;stroke-width:2.99813714;stroke-dasharray:none;stroke-opacity:1" /><path
           d="m 38.044819,90.307337 a 40,40 0 0 1 0,-30.614674"
           id="path272"
           style="fill:#000000;fill-opacity:0;stroke:#e69f00;stroke-width:2.99813714;stroke-dasharray:none;stroke-opacity:1" /><path
           d="m 23.262746,53.569728 a 56,56 0 0 1 103.474504,0"
           id="path274"
           style="fill:#000000;fill-opacity:0;stroke:#e69f00;stroke-width:2.99813714;stroke-dasharray:none;stroke-opacity:1" /><path
           d="m 131,75 a 56,56 0 0 1 -4.26275,21.430272"
           id="path276"
           style="fill:#000000;fill-opacity:0;stroke:#e69f00;stroke-width:2.99813714;stroke-dasharray:none;stroke-opacity:1" /><path
           d="M 114.59798,114.59798 A 56,56 0 0 1 96.430272,126.73725"
           id="path278"
           style="fill:#000000;fill-opacity:0;stroke:#e69f00;stroke-width:2.99813714;stroke-dasharray:none;stroke-opacity:1" /><path
           d="M 75,131 A 56,56 0 0 1 23.262746,96.430272"
           id="path280"
           style="fill:#000000;fill-opacity:0;stroke:#e69f00;stroke-width:2.99813714;stroke-dasharray:none;stroke-opacity:1" /><path
           d="M 89.046503,4.3834598 A 72,72 0 1 1 75,3"
           id="path282"
           style="fill:#000000;fill-opacity:0;stroke:#e69f00;stroke-width:2.99813714;stroke-dasharray:none;stroke-opacity:1" /></g><g
         fill="none"
         stroke="#000000"
         stroke-width="2"
         stroke-linecap="butt"
         id="g304"
         style="fill:#000000;fill-opacity:0;stroke:#e69f00;stroke-width:2.99813714;stroke-dasharray:none;stroke-opacity:1"
         transform="matrix(0.8619931,0,0,0.8619931,219.88733,52.30872)"><line
           x1="75"
           y1="3"
           x2="75"
           y2="19"
           id="line286"
           style="fill:#000000;fill-opacity:0;stroke:#e69f00;stroke-width:2.99813714;stroke-dasharray:none;stroke-opacity:1" /><line
           x1="147"
           y1="75"
           x2="115"
           y2="75"
           id="line288"
           style="fill:#000000;fill-opacity:0;stroke:#e69f00;stroke-width:2.99813714;stroke-dasharray:none;stroke-opacity:1" /><line
           x1="114.59798"
           y1="114.59798"
           x2="103.28427"
           y2="103.28427"
           id="line290"
           style="fill:#000000;fill-opacity:0;stroke:#e69f00;stroke-width:2.99813714;stroke-dasharray:none;stroke-opacity:1" /><line
           x1="75"
           y1="131"
           x2="75"
           y2="115"
           id="line292"
           style="fill:#000000;fill-opacity:0;stroke:#e69f00;stroke-width:2.99813714;stroke-dasharray:none;stroke-opacity:1" /><line
           x1="46.715729"
           y1="103.28427"
           x2="58.029438"
           y2="91.970566"
           id="line294"
           style="fill:#000000;fill-opacity:0;stroke:#e69f00;stroke-width:2.99813714;stroke-dasharray:none;stroke-opacity:1" /><line
           x1="23.262747"
           y1="96.430275"
           x2="38.044819"
           y2="90.307335"
           id="line296"
           style="fill:#000000;fill-opacity:0;stroke:#e69f00;stroke-width:2.99813714;stroke-dasharray:none;stroke-opacity:1" /><line
           x1="3"
           y1="75"
           x2="19"
           y2="75"
           id="line298"
           style="fill:#000000;fill-opacity:0;stroke:#e69f00;stroke-width:2.99813714;stroke-dasharray:none;stroke-opacity:1" /><line
           x1="35"
           y1="75"
           x2="51"
           y2="75"
           id="line300"
           style="fill:#000000;fill-opacity:0;stroke:#e69f00;stroke-width:2.99813714;stroke-dasharray:none;stroke-opacity:1" /><line
           x1="23.262747"
           y1="53.569729"
           x2="38.044819"
           y2="59.692661"
           id="line302"
           style="fill:#000000;fill-opacity:0;stroke:#e69f00;stroke-width:2.99813714;stroke-dasharray:none;stroke-opacity:1" /></g></g><g
       id="g7721"
       transform="matrix(0.92865817,0,0,0.9369215,209.84909,391.4711)"
       style="fill:#ffcc00;fill-opacity:0;stroke:#e69f00;stroke-width:4.25475;stroke-dasharray:none;stroke-opacity:1"><g
         fill="none"
         stroke="#000000"
         stroke-width="2"
         stroke-linecap="square"
         id="g7592"
         style="fill:#ffcc00;fill-opacity:0;stroke:#e69f00;stroke-width:4.25475;stroke-dasharray:none;stroke-opacity:1"><path
           d="M 90.029437,123.97056 A 24,24 0 1 1 107,131"
           id="path7544"
           style="fill:#ffcc00;fill-opacity:0;stroke:#e69f00;stroke-width:4.25475;stroke-dasharray:none;stroke-opacity:1" /><path
           d="M 122.30734,70.044819 A 40,40 0 1 1 70.044819,91.692663"
           id="path7546"
           style="fill:#ffcc00;fill-opacity:0;stroke:#e69f00;stroke-width:4.25475;stroke-dasharray:none;stroke-opacity:1" /><path
           d="m 78.715729,78.715729 a 40,40 0 0 1 12.976934,-8.67091"
           id="path7548"
           style="fill:#ffcc00;fill-opacity:0;stroke:#e69f00;stroke-width:4.25475;stroke-dasharray:none;stroke-opacity:1" /><path
           d="M 67.40202,67.40202 A 56,56 0 0 1 107,51"
           id="path7550"
           style="fill:#ffcc00;fill-opacity:0;stroke:#e69f00;stroke-width:4.25475;stroke-dasharray:none;stroke-opacity:1" /><path
           d="m 163,107 a 56,56 0 0 1 -16.40202,39.59798"
           id="path7552"
           style="fill:#ffcc00;fill-opacity:0;stroke:#e69f00;stroke-width:4.25475;stroke-dasharray:none;stroke-opacity:1" /><path
           d="M 107,163 A 56,56 0 0 1 67.40202,146.59798"
           id="path7554"
           style="fill:#ffcc00;fill-opacity:0;stroke:#e69f00;stroke-width:4.25475;stroke-dasharray:none;stroke-opacity:1" /><path
           d="M 55.262746,128.43027 A 56,56 0 0 1 51,107"
           id="path7556"
           style="fill:#ffcc00;fill-opacity:0;stroke:#e69f00;stroke-width:4.25475;stroke-dasharray:none;stroke-opacity:1" /><path
           d="m 107,35 a 72,72 0 0 1 40.00106,12.134188"
           id="path7558"
           style="fill:#ffcc00;fill-opacity:0;stroke:#e69f00;stroke-width:4.25475;stroke-dasharray:none;stroke-opacity:1" /><path
           d="m 166.86581,66.998943 a 72,72 0 0 1 10.75073,25.954554"
           id="path7560"
           style="fill:#ffcc00;fill-opacity:0;stroke:#e69f00;stroke-width:4.25475;stroke-dasharray:none;stroke-opacity:1" /><path
           d="m 179,107 a 72,72 0 0 1 -1.38346,14.0465"
           id="path7562"
           style="fill:#ffcc00;fill-opacity:0;stroke:#e69f00;stroke-width:4.25475;stroke-dasharray:none;stroke-opacity:1" /><path
           d="M 166.86581,147.00106 A 72,72 0 0 1 121.0465,177.61654"
           id="path7564"
           style="fill:#ffcc00;fill-opacity:0;stroke:#e69f00;stroke-width:4.25475;stroke-dasharray:none;stroke-opacity:1" /><path
           d="M 107,179 A 72,72 0 0 1 66.998943,166.86581"
           id="path7566"
           style="fill:#ffcc00;fill-opacity:0;stroke:#e69f00;stroke-width:4.25475;stroke-dasharray:none;stroke-opacity:1" /><path
           d="M 56.088312,157.91169 A 72,72 0 0 1 40.480674,134.55321"
           id="path7568"
           style="fill:#ffcc00;fill-opacity:0;stroke:#e69f00;stroke-width:4.25475;stroke-dasharray:none;stroke-opacity:1" /><path
           d="M 35,107 A 72,72 0 0 1 66.998943,47.134188"
           id="path7570"
           style="fill:#ffcc00;fill-opacity:0;stroke:#e69f00;stroke-width:4.25475;stroke-dasharray:none;stroke-opacity:1" /><path
           d="M 79.446793,40.480674 A 72,72 0 0 1 92.953497,36.38346"
           id="path7572"
           style="fill:#ffcc00;fill-opacity:0;stroke:#e69f00;stroke-width:4.25475;stroke-dasharray:none;stroke-opacity:1" /><path
           d="m 89.832052,20.690895 a 88,88 0 0 1 50.844088,5.007706"
           id="path7574"
           style="fill:#ffcc00;fill-opacity:0;stroke:#e69f00;stroke-width:4.25475;stroke-dasharray:none;stroke-opacity:1" /><path
           d="m 155.89018,33.830674 a 88,88 0 0 1 24.27915,24.279145"
           id="path7576"
           style="fill:#ffcc00;fill-opacity:0;stroke:#e69f00;stroke-width:4.25475;stroke-dasharray:none;stroke-opacity:1" /><path
           d="m 188.3014,73.323858 a 88,88 0 0 1 0,67.352282"
           id="path7578"
           style="fill:#ffcc00;fill-opacity:0;stroke:#e69f00;stroke-width:4.25475;stroke-dasharray:none;stroke-opacity:1" /><path
           d="M 124.16795,193.3091 A 88,88 0 0 1 107,195"
           id="path7580"
           style="fill:#ffcc00;fill-opacity:0;stroke:#e69f00;stroke-width:4.25475;stroke-dasharray:none;stroke-opacity:1" /><path
           d="M 89.832052,193.3091 A 88,88 0 0 1 58.109819,180.16933"
           id="path7582"
           style="fill:#ffcc00;fill-opacity:0;stroke:#e69f00;stroke-width:4.25475;stroke-dasharray:none;stroke-opacity:1" /><path
           d="M 33.830674,155.89018 A 88,88 0 0 1 20.690895,124.16795"
           id="path7584"
           style="fill:#ffcc00;fill-opacity:0;stroke:#e69f00;stroke-width:4.25475;stroke-dasharray:none;stroke-opacity:1" /><path
           d="M 20.690895,89.832052 A 88,88 0 0 1 44.774603,44.774603"
           id="path7586"
           style="fill:#ffcc00;fill-opacity:0;stroke:#e69f00;stroke-width:4.25475;stroke-dasharray:none;stroke-opacity:1" /><path
           d="M 58.109819,33.830674 A 88,88 0 0 1 73.323858,25.698601"
           id="path7588"
           style="fill:#ffcc00;fill-opacity:0;stroke:#e69f00;stroke-width:4.25475;stroke-dasharray:none;stroke-opacity:1" /><path
           d="M 127.28939,4.9983308 A 104,104 0 1 1 107,3"
           id="path7590"
           style="fill:#ffcc00;fill-opacity:0;stroke:#e69f00;stroke-width:4.25475;stroke-dasharray:none;stroke-opacity:1" /></g><g
         fill="none"
         stroke="#000000"
         stroke-width="2"
         stroke-linecap="butt"
         id="g7656"
         style="fill:#ffcc00;fill-opacity:0;stroke:#e69f00;stroke-width:4.25475;stroke-dasharray:none;stroke-opacity:1"><line
           x1="107"
           y1="51"
           x2="107"
           y2="83"
           id="line7594"
           style="fill:#ffcc00;fill-opacity:0;stroke:#e69f00;stroke-width:4.25475;stroke-dasharray:none;stroke-opacity:1" /><line
           x1="127.28939"
           y1="4.9983311"
           x2="124.16795"
           y2="20.690895"
           id="line7596"
           style="fill:#ffcc00;fill-opacity:0;stroke:#e69f00;stroke-width:4.25475;stroke-dasharray:none;stroke-opacity:1" /><line
           x1="134.55321"
           y1="40.480675"
           x2="122.30733"
           y2="70.044815"
           id="line7598"
           style="fill:#ffcc00;fill-opacity:0;stroke:#e69f00;stroke-width:4.25475;stroke-dasharray:none;stroke-opacity:1" /><line
           x1="155.89018"
           y1="33.830673"
           x2="147.00105"
           y2="47.13419"
           id="line7600"
           style="fill:#ffcc00;fill-opacity:0;stroke:#e69f00;stroke-width:4.25475;stroke-dasharray:none;stroke-opacity:1" /><line
           x1="157.91168"
           y1="56.08831"
           x2="135.28427"
           y2="78.715729"
           id="line7602"
           style="fill:#ffcc00;fill-opacity:0;stroke:#e69f00;stroke-width:4.25475;stroke-dasharray:none;stroke-opacity:1" /><line
           x1="180.16933"
           y1="58.109821"
           x2="166.86581"
           y2="66.99894"
           id="line7604"
           style="fill:#ffcc00;fill-opacity:0;stroke:#e69f00;stroke-width:4.25475;stroke-dasharray:none;stroke-opacity:1" /><line
           x1="203.08347"
           y1="67.20092"
           x2="188.30139"
           y2="73.32386"
           id="line7606"
           style="fill:#ffcc00;fill-opacity:0;stroke:#e69f00;stroke-width:4.25475;stroke-dasharray:none;stroke-opacity:1" /><line
           x1="173.51933"
           y1="79.446793"
           x2="158.73726"
           y2="85.569725"
           id="line7608"
           style="fill:#ffcc00;fill-opacity:0;stroke:#e69f00;stroke-width:4.25475;stroke-dasharray:none;stroke-opacity:1" /><line
           x1="195"
           y1="107"
           x2="179"
           y2="107"
           id="line7610"
           style="fill:#ffcc00;fill-opacity:0;stroke:#e69f00;stroke-width:4.25475;stroke-dasharray:none;stroke-opacity:1" /><line
           x1="163"
           y1="107"
           x2="147"
           y2="107"
           id="line7612"
           style="fill:#ffcc00;fill-opacity:0;stroke:#e69f00;stroke-width:4.25475;stroke-dasharray:none;stroke-opacity:1" /><line
           x1="188.30139"
           y1="140.67615"
           x2="173.51933"
           y2="134.55321"
           id="line7614"
           style="fill:#ffcc00;fill-opacity:0;stroke:#e69f00;stroke-width:4.25475;stroke-dasharray:none;stroke-opacity:1" /><line
           x1="180.16933"
           y1="155.89018"
           x2="166.86581"
           y2="147.00105"
           id="line7616"
           style="fill:#ffcc00;fill-opacity:0;stroke:#e69f00;stroke-width:4.25475;stroke-dasharray:none;stroke-opacity:1" /><line
           x1="180.53911"
           y1="180.53911"
           x2="169.2254"
           y2="169.2254"
           id="line7618"
           style="fill:#ffcc00;fill-opacity:0;stroke:#e69f00;stroke-width:4.25475;stroke-dasharray:none;stroke-opacity:1" /><line
           x1="157.91168"
           y1="157.91168"
           x2="146.59798"
           y2="146.59798"
           id="line7620"
           style="fill:#ffcc00;fill-opacity:0;stroke:#e69f00;stroke-width:4.25475;stroke-dasharray:none;stroke-opacity:1" /><line
           x1="155.89018"
           y1="180.16933"
           x2="147.00105"
           y2="166.86581"
           id="line7622"
           style="fill:#ffcc00;fill-opacity:0;stroke:#e69f00;stroke-width:4.25475;stroke-dasharray:none;stroke-opacity:1" /><line
           x1="146.79907"
           y1="203.08347"
           x2="140.67615"
           y2="188.30139"
           id="line7624"
           style="fill:#ffcc00;fill-opacity:0;stroke:#e69f00;stroke-width:4.25475;stroke-dasharray:none;stroke-opacity:1" /><line
           x1="134.55321"
           y1="173.51933"
           x2="128.43027"
           y2="158.73726"
           id="line7626"
           style="fill:#ffcc00;fill-opacity:0;stroke:#e69f00;stroke-width:4.25475;stroke-dasharray:none;stroke-opacity:1" /><line
           x1="124.16795"
           y1="193.3091"
           x2="121.0465"
           y2="177.61655"
           id="line7628"
           style="fill:#ffcc00;fill-opacity:0;stroke:#e69f00;stroke-width:4.25475;stroke-dasharray:none;stroke-opacity:1" /><line
           x1="107"
           y1="195"
           x2="107"
           y2="179"
           id="line7630"
           style="fill:#ffcc00;fill-opacity:0;stroke:#e69f00;stroke-width:4.25475;stroke-dasharray:none;stroke-opacity:1" /><line
           x1="58.109821"
           y1="180.16933"
           x2="66.99894"
           y2="166.86581"
           id="line7632"
           style="fill:#ffcc00;fill-opacity:0;stroke:#e69f00;stroke-width:4.25475;stroke-dasharray:none;stroke-opacity:1" /><line
           x1="33.460896"
           y1="180.53911"
           x2="67.402023"
           y2="146.59798"
           id="line7634"
           style="fill:#ffcc00;fill-opacity:0;stroke:#e69f00;stroke-width:4.25475;stroke-dasharray:none;stroke-opacity:1" /><line
           x1="55.262745"
           y1="128.43027"
           x2="70.044815"
           y2="122.30733"
           id="line7636"
           style="fill:#ffcc00;fill-opacity:0;stroke:#e69f00;stroke-width:4.25475;stroke-dasharray:none;stroke-opacity:1" /><line
           x1="4.9983311"
           y1="127.28939"
           x2="36.383461"
           y2="121.0465"
           id="line7638"
           style="fill:#ffcc00;fill-opacity:0;stroke:#e69f00;stroke-width:4.25475;stroke-dasharray:none;stroke-opacity:1" /><line
           x1="19"
           y1="107"
           x2="35"
           y2="107"
           id="line7640"
           style="fill:#ffcc00;fill-opacity:0;stroke:#e69f00;stroke-width:4.25475;stroke-dasharray:none;stroke-opacity:1" /><line
           x1="4.9983311"
           y1="86.710609"
           x2="20.690895"
           y2="89.832054"
           id="line7642"
           style="fill:#ffcc00;fill-opacity:0;stroke:#e69f00;stroke-width:4.25475;stroke-dasharray:none;stroke-opacity:1" /><line
           x1="40.480675"
           y1="79.446793"
           x2="70.044815"
           y2="91.692665"
           id="line7644"
           style="fill:#ffcc00;fill-opacity:0;stroke:#e69f00;stroke-width:4.25475;stroke-dasharray:none;stroke-opacity:1" /><line
           x1="67.402023"
           y1="67.402023"
           x2="78.715729"
           y2="78.715729"
           id="line7646"
           style="fill:#ffcc00;fill-opacity:0;stroke:#e69f00;stroke-width:4.25475;stroke-dasharray:none;stroke-opacity:1" /><line
           x1="58.109821"
           y1="33.830673"
           x2="66.99894"
           y2="47.13419"
           id="line7648"
           style="fill:#ffcc00;fill-opacity:0;stroke:#e69f00;stroke-width:4.25475;stroke-dasharray:none;stroke-opacity:1" /><line
           x1="67.20092"
           y1="10.916529"
           x2="73.32386"
           y2="25.698601"
           id="line7650"
           style="fill:#ffcc00;fill-opacity:0;stroke:#e69f00;stroke-width:4.25475;stroke-dasharray:none;stroke-opacity:1" /><line
           x1="79.446793"
           y1="40.480675"
           x2="85.569725"
           y2="55.262745"
           id="line7652"
           style="fill:#ffcc00;fill-opacity:0;stroke:#e69f00;stroke-width:4.25475;stroke-dasharray:none;stroke-opacity:1" /><line
           x1="89.832054"
           y1="20.690895"
           x2="92.953499"
           y2="36.383461"
           id="line7654"
           style="fill:#ffcc00;fill-opacity:0;stroke:#e69f00;stroke-width:4.25475;stroke-dasharray:none;stroke-opacity:1" /></g></g><g
       id="g18312"
       transform="matrix(5.0682848,0,0,5.0682848,-1996.9941,-1266.8945)"
       style="stroke:#e69f00;stroke-width:0.783056;stroke-dasharray:none;stroke-opacity:1"><g
         fill="none"
         stroke="#000000"
         stroke-width="2"
         stroke-linecap="square"
         id="g18127"
         transform="matrix(0.26458333,0,0,0.26458333,435.15467,285.49349)"
         style="stroke:#e69f00;stroke-width:2.95958;stroke-dasharray:none;stroke-opacity:1"><path
           d="M 58.029437,91.970563 A 24,24 0 1 1 75,99"
           id="path18105"
           style="stroke:#e69f00;stroke-width:2.95958;stroke-dasharray:none;stroke-opacity:1" /><path
           d="M 46.715729,46.715729 A 40,40 0 0 1 75,35"
           id="path18107"
           style="stroke:#e69f00;stroke-width:2.95958;stroke-dasharray:none;stroke-opacity:1" /><path
           d="M 90.307337,38.044819 A 40,40 0 0 1 111.95518,90.307337"
           id="path18109"
           style="stroke:#e69f00;stroke-width:2.95958;stroke-dasharray:none;stroke-opacity:1" /><path
           d="m 103.28427,103.28427 a 40,40 0 0 1 -12.976933,8.67091"
           id="path18111"
           style="stroke:#e69f00;stroke-width:2.95958;stroke-dasharray:none;stroke-opacity:1" /><path
           d="M 75,115 A 40,40 0 0 1 35,75"
           id="path18113"
           style="stroke:#e69f00;stroke-width:2.95958;stroke-dasharray:none;stroke-opacity:1" /><path
           d="M 19,75 A 56,56 0 0 1 96.430272,23.262746"
           id="path18115"
           style="stroke:#e69f00;stroke-width:2.95958;stroke-dasharray:none;stroke-opacity:1" /><path
           d="m 114.59798,35.40202 a 56,56 0 0 1 12.13927,18.167708"
           id="path18117"
           style="stroke:#e69f00;stroke-width:2.95958;stroke-dasharray:none;stroke-opacity:1" /><path
           d="M 131,75 A 56,56 0 0 1 96.430272,126.73725"
           id="path18119"
           style="stroke:#e69f00;stroke-width:2.95958;stroke-dasharray:none;stroke-opacity:1" /><path
           d="M 75,131 A 56,56 0 0 1 53.569728,126.73725"
           id="path18121"
           style="stroke:#e69f00;stroke-width:2.95958;stroke-dasharray:none;stroke-opacity:1" /><path
           d="M 35.40202,114.59798 A 56,56 0 0 1 23.262746,96.430272"
           id="path18123"
           style="stroke:#e69f00;stroke-width:2.95958;stroke-dasharray:none;stroke-opacity:1" /><path
           d="M 89.046503,4.3834598 A 72,72 0 1 1 75,3"
           id="path18125"
           style="stroke:#e69f00;stroke-width:2.95958;stroke-dasharray:none;stroke-opacity:1" /></g><g
         fill="none"
         stroke="#000000"
         stroke-width="2"
         stroke-linecap="butt"
         id="g18149"
         transform="matrix(0.26458333,0,0,0.26458333,435.15467,285.49349)"
         style="stroke:#e69f00;stroke-width:2.95958;stroke-dasharray:none;stroke-opacity:1"><line
           x1="102.55321"
           y1="8.4806738"
           x2="90.307335"
           y2="38.044819"
           id="line18129"
           style="stroke:#e69f00;stroke-width:2.95958;stroke-dasharray:none;stroke-opacity:1" /><line
           x1="141.51933"
           y1="47.446793"
           x2="126.73725"
           y2="53.569729"
           id="line18131"
           style="stroke:#e69f00;stroke-width:2.95958;stroke-dasharray:none;stroke-opacity:1" /><line
           x1="126.73725"
           y1="96.430275"
           x2="111.95518"
           y2="90.307335"
           id="line18133"
           style="stroke:#e69f00;stroke-width:2.95958;stroke-dasharray:none;stroke-opacity:1" /><line
           x1="103.28427"
           y1="103.28427"
           x2="91.970566"
           y2="91.970566"
           id="line18135"
           style="stroke:#e69f00;stroke-width:2.95958;stroke-dasharray:none;stroke-opacity:1" /><line
           x1="96.430275"
           y1="126.73725"
           x2="90.307335"
           y2="111.95518"
           id="line18137"
           style="stroke:#e69f00;stroke-width:2.95958;stroke-dasharray:none;stroke-opacity:1" /><line
           x1="53.569729"
           y1="126.73725"
           x2="59.692661"
           y2="111.95518"
           id="line18139"
           style="stroke:#e69f00;stroke-width:2.95958;stroke-dasharray:none;stroke-opacity:1" /><line
           x1="8.4806738"
           y1="102.55321"
           x2="23.262747"
           y2="96.430275"
           id="line18141"
           style="stroke:#e69f00;stroke-width:2.95958;stroke-dasharray:none;stroke-opacity:1" /><line
           x1="19"
           y1="75"
           x2="35"
           y2="75"
           id="line18143"
           style="stroke:#e69f00;stroke-width:2.95958;stroke-dasharray:none;stroke-opacity:1" /><line
           x1="23.262747"
           y1="53.569729"
           x2="38.044819"
           y2="59.692661"
           id="line18145"
           style="stroke:#e69f00;stroke-width:2.95958;stroke-dasharray:none;stroke-opacity:1" /><line
           x1="46.715729"
           y1="46.715729"
           x2="58.029438"
           y2="58.029438"
           id="line18147"
           style="stroke:#e69f00;stroke-width:2.95958;stroke-dasharray:none;stroke-opacity:1" /></g></g><path
       style="fill:#000000;fill-opacity:0;stroke-width:27.9095;stroke-dasharray:none"
       d="M 1074.4761,524.6975 C 1004.8023,515.34406 941.16054,488.32606 887.41901,445.28569 871.98332,432.92358 844.09612,405.03417 831.75358,389.61584 713.82302,242.2967 724.97828,30.663544 857.69108,-102.46017 924.06426,-169.03887 1011.4398,-207.4017 1104.8543,-210.9789 l 22.981,-0.88003 0.1396,5.5203 c 0.077,3.03617 0.2359,21.11201 0.3536,40.16854 l 0.2139,34.64823 13.1966,1.01463 c 66.9453,5.14714 129.1179,33.2298 177.5784,80.210159 26.8705,26.049729 45.8306,52.2215328 61.1998,84.477552 10.0926,21.181709 10.0923,21.105837 0.1088,25.212006 -4.9978,2.055559 -8.1317,2.730167 -8.1317,1.7504 0,-3.404549 -19.9329,-41.957595 -27.514,-53.215923 -40.8383,-60.647177 -102.6202,-101.767017 -174.8601,-116.380684 -14.228,-2.87824 -20.1922,-3.26137 -50.7702,-3.26137 -30.3068,0 -36.6105,0.39759 -50.3088,3.17311 -43.2992,8.773135 -83.52084,27.077349 -117.27864,53.371557 -21.72496,16.921744 -45.0288,42.546431 -60.47808,66.501145 -9.31169,14.438144 -18.60649,33.194166 -17.14065,34.588184 0.6899,0.656096 13.98229,6.385712 29.53864,12.732476 15.55635,6.346764 31.52095,12.917427 35.47689,14.601458 l 7.1926,3.0619 -3.47169,8.511671 c -5.70258,13.981198 -9.99165,29.767239 -12.28601,45.218999 -1.18968,8.01206 -2.16305,15.59938 -2.16305,16.86075 0,2.04512 3.34816,2.29337 30.93002,2.29337 h 30.93004 l 0.98631,-8.71788 C 995.10999,106.6076 1017.6563,70.613437 1047.4845,50.749973 1068.4969,36.75715 1087.96,30.4878 1113.797,29.38972 c 36.8787,-1.567359 67.7799,10.004019 94.0397,35.214441 18.1057,17.38224 29.2752,35.885369 36.3071,60.145739 2.7466,9.47604 3.1799,14.1753 3.102,33.64202 -0.082,20.40262 -0.4653,23.85058 -3.902,35.06767 -11.2553,36.73677 -34.1259,63.74274 -67.9129,80.19277 -16.4488,8.00849 -32.2639,12.10073 -52.1918,13.50489 l -13.7886,0.97157 v -9.09745 -9.09746 l 16.7813,-1.5788 c 19.5762,-1.84174 34.5991,-6.36365 48.5845,-14.62391 33.5978,-19.84402 52.8284,-52.03418 54.4218,-91.09664 1.389,-34.05309 -8.24,-58.86515 -32.1063,-82.731494 -23.8664,-23.866338 -48.6784,-33.495365 -82.7315,-32.106296 -30.3861,1.239473 -51.1764,10.37525 -73.0048,32.080119 -12.1444,12.07573 -14.3755,15.123841 -20.7475,28.345221 -8.7005,18.05303 -11.6144,30.56738 -11.5821,49.74188 0.052,30.62706 9.6729,54.78261 30.9476,77.69803 l 7.0397,7.58271 -27.7402,27.83935 c -25.21846,25.3086 -27.55685,28.06337 -25.72342,30.30389 4.8574,5.9359 26.05532,19.86152 42.32182,27.80262 9.7228,4.7465 17.8633,8.74919 18.09,8.89487 0.9211,0.59165 -6.1651,16.17125 -7.3561,16.17307 -0.7078,10e-4 -8.981,-3.74887 -18.3848,-8.33322 -19.558,-9.53453 -36.88331,-21.40574 -52.60119,-36.04206 l -10.90703,-10.1565 28.71865,-28.37032 28.71867,-28.37033 -6.0897,-7.64886 c -11.4518,-14.38374 -22.29769,-40.72109 -24.84363,-60.32831 l -0.96405,-7.42462 h -31.00074 -31.00072 l 0.90708,8.83883 c 1.50065,14.62262 7.26334,38.4949 12.35171,51.16762 l 4.78884,11.92676 -10.01425,4.12987 c -49.50255,20.41484 -63.04726,26.34493 -63.04726,27.60309 0,0.80314 2.9504,6.92193 6.55644,13.59732 28.55839,52.86626 71.3905,93.58915 124.62368,118.4867 25.7421,12.03979 60.5314,21.73168 85.1946,23.73424 5.8336,0.47367 12.6748,1.17893 15.2027,1.56723 l 4.5962,0.70602 v -40.36918 -40.36917 l 12.3744,-0.008 c 72.3838,-0.0488 139.5756,-43.84468 171.0897,-111.51698 3.4917,-7.49792 6.4996,-13.79992 6.6843,-14.00445 0.1846,-0.20452 3.9193,1.21295 8.2992,3.14995 9.1224,4.0344 9.1089,2.42061 0.1783,21.26355 -7.2471,15.2908 -18.1511,32.35007 -27.9043,43.65583 l -7.1606,8.30047 28.7266,28.45781 28.7266,28.45781 -11.8657,11.08462 c -25.8361,24.13543 -54.4465,42.74602 -89.1012,57.95876 l -7.9391,3.48508 -3.0211,-7.28891 c -1.6615,-4.00877 -3.021,-7.91986 -3.021,-8.69116 0,-0.77131 6.2048,-4.093 13.7885,-7.38153 23.2708,-10.09088 58.0683,-32.6168 70.3031,-45.51013 l 4.1886,-4.41404 -21.1415,-21.17676 c -11.6278,-11.64722 -21.867,-21.17678 -22.7537,-21.17678 -0.8868,0 -2.4857,1.0618 -3.5532,2.35952 -3.3835,4.11318 -21.442,16.88271 -34.3087,24.26031 -23.8632,13.68294 -51.3191,22.64446 -79.3653,25.90458 l -15.0969,1.75489 0.279,34.7322 c 0.1534,19.1027 0.2114,37.21124 0.1289,40.24118 l -0.1501,5.50899 -19.4454,-1.003 c -35.4375,-1.82787 -66.1215,-8.50154 -97.659,-21.24054 -61.4926,-24.83875 -112.84627,-70.4716 -144.89722,-128.75563 -5.91177,-10.75041 -16.59843,-33.90171 -16.59843,-35.95836 0,-0.70417 4.61387,-3.18506 10.25304,-5.5131 5.63918,-2.32804 22.10608,-9.11028 36.59312,-15.07166 l 26.34005,-10.83884 -2.64879,-8.5106 c -6.95991,-22.36223 -8.89905,-36.2357 -8.86633,-63.43343 0.0332,-27.57579 2.2863,-43.30374 8.99826,-62.812392 1.58239,-4.599305 2.71632,-8.479624 2.51986,-8.622955 -0.29677,-0.216488 -33.3751,-13.858459 -64.47494,-26.590369 -4.15205,-1.6998 -7.86589,-3.850818 -8.25298,-4.780013 -1.03944,-2.49514 16.45185,-38.041115 25.76936,-52.3687388 41.03496,-63.0998762 100.71635,-106.3398622 172.2212,-124.7766022 17.2969,-4.45981 43.4791,-8.54849 54.741,-8.54849 h 7.0224 v -31.29511 -31.29511 l -13.0814,0.98473 c -72.6165,5.46635 -140.58789,31.62967 -194.80795,74.98477 -73.75707,58.97717 -119.9213,141.922719 -130.81376,235.03946 -1.16727,9.97875 -2.12232,21.16996 -2.12232,24.86936 v 6.72618 h 34.64824 34.64823 v 9.19239 9.19239 H 803.06502 768.2085 l 0.95109,14.71104 c 4.1401,64.03706 27.06172,127.16315 65.85977,181.37766 47.62006,66.54196 119.72023,115.21401 199.72194,134.82466 32.496,7.96567 43.8875,9.205 84.6087,9.205 29.73,0 40.6418,-0.53316 52.7889,-2.57927 37.9172,-6.38694 69.0986,-16.35064 102.3639,-32.70933 112.5315,-55.33891 185.5339,-164.57977 194.9667,-291.74829 l 0.9703,-13.08147 h -31.2951 -31.2951 v 7.02244 c 0,11.02933 -4.0164,37.03834 -8.3842,54.29347 -3.4657,13.69129 -14.3873,45.36557 -16.303,47.28134 -0.3669,0.36681 -4.2397,-0.7831 -8.6063,-2.55536 -5.9567,-2.41768 -7.7471,-3.78813 -7.1698,-5.48818 0.4232,-1.24624 3.9258,-11.49361 7.7837,-22.77197 7.8089,-22.82935 12.5606,-45.01246 13.8588,-64.70027 l 0.8626,-13.08147 h -39.5954 -39.5953 l -0.8602,-16.61701 c -2.5538,-49.33766 -19.7502,-90.14295 -52.4204,-124.388217 -27.677,-29.0113323 -60.4648,-47.299461 -99.8867,-55.714004 -19.5885,-4.181136 -53.8118,-4.53954 -72.7803,-0.762176 -38.1007,7.587312 -70.0569,23.8586738 -95.90973,48.834958 l -11.00561,10.632482 -6.67206,-6.740114 -6.67205,-6.740127 11.1236,-10.1663715 c 30.72965,-28.0852635 63.28065,-44.7922585 104.13485,-53.4478255 19.5414,-4.140153 56.3916,-4.524861 75.6604,-0.789881 42.198,8.179486 78.0769,26.555805 107.8628,55.2447821 18.9837,18.2845509 30.6619,33.9267149 41.9883,56.2406429 12.5835,24.790513 19.3808,48.126241 22.6897,77.896351 l 0.9039,8.13173 h 70.8026 70.8027 l -0.9703,-13.78858 c -5.3077,-75.423914 -33.0466,-144.9109438 -80.8713,-202.586094 -11.4428,-13.799657 -37.9295,-39.657156 -51.8901,-50.657376 -40.8193,-32.16362 -88.1726,-54.65439 -140.3061,-66.63947 -9.3338,-2.14577 -16.9483,-4.47413 -16.921,-5.17412 0.027,-0.7 0.5643,-4.6138 1.1934,-8.69734 0.8625,-5.59917 1.7353,-7.42462 3.5498,-7.42462 4.7519,0 46.3934,11.14758 59.5539,15.94283 45.2117,16.47355 88.1895,42.22395 122.4493,73.36618 68.3566,62.136303 110.4824,144.84886 120.1471,235.90458 16.4543,155.02412 -66.8377,303.77941 -207.9481,371.38506 -32.4926,15.5671 -62.3899,25.05548 -100.4092,31.86636 -21.8472,3.91378 -80.8255,5.05307 -103.5638,2.00056 z"
       id="path11564"
       transform="scale(0.26458333)" /><path
       style="fill:#000000;fill-opacity:0;stroke-width:27.9095;stroke-dasharray:none"
       d="m 1282.2252,1373.7659 c -31.9311,-2.2975 -69.1428,-10.3952 -100.1406,-21.7918 -33.7422,-12.4056 -76.3663,-36.5396 -105.161,-59.5428 -15.5539,-12.4255 -44.8908,-41.7927 -57.0569,-57.1158 -68.45319,-86.2161 -96.79532,-194.6218 -78.65488,-300.84648 16.36024,-95.80041 67.98298,-181.16358 144.91928,-239.63797 59.562,-45.26923 133.9668,-71.90532 207.5208,-74.2901 l 25.1022,-0.81388 v 9.39518 9.39517 h -13.8965 c -19.8069,0 -41.6304,2.37095 -65.4382,7.10936 -20.1342,4.00723 -56.4298,14.81194 -56.4298,16.79836 0,0.54673 4.7357,12.41476 10.5236,26.37339 10.3503,24.96132 10.4726,25.39986 7.4247,26.62671 -7.7976,3.13865 -43.0511,20.97409 -46.0549,23.30005 l -3.3579,2.60015 15.5709,23.13117 15.5709,23.13117 -10.3384,7.13566 c -27.6762,19.10225 -52.1574,45.06776 -69.4422,73.65262 -7.3909,12.22271 -14.0843,25.79468 -13.121,26.60481 0.3263,0.27447 23.3445,9.95224 51.1515,21.5062 27.807,11.55394 50.5581,21.779 50.5581,22.72237 0,0.94335 -1.3205,4.79084 -2.9345,8.54995 -6.1116,14.2341 -8.9024,29.75241 -8.8591,49.26117 0.046,20.66014 2.2891,33.03344 9.064,49.99724 15.064,37.719 47.6424,66.7388 87.5824,78.0158 16.1035,4.5468 42.151,5.299 59.4112,1.7156 53.1974,-11.0441 92.5133,-51.2641 103.3114,-105.687 0.9259,-4.6669 1.6403,-16.122 1.5875,-25.45585 -0.1999,-35.31898 -13.1164,-66.62479 -37.8127,-91.64643 -11.4627,-11.61367 -22.2755,-19.13825 -38.755,-26.96945 l -12.3668,-5.87682 1.893,-4.22168 c 6.0026,-13.38608 40.1112,-97.52599 40.1112,-98.94718 0,-2.11518 -20.0856,-8.34392 -38.8909,-12.06045 -7.7782,-1.53722 -23.2108,-3.21686 -34.2947,-3.73254 l -20.1525,-0.9376 v -9.17767 -9.17766 l 20.8596,0.82662 c 22.2681,0.88243 36.3325,3.00084 57.7249,8.69467 16.5319,4.40013 41.5484,14.54756 56.2718,22.82549 6.112,3.43631 11.6329,6.24785 12.2687,6.24785 0.6358,0 5.3885,-6.52306 10.5615,-14.49569 5.173,-7.97263 12.0547,-18.40072 15.2927,-23.17353 l 5.8873,-8.67785 10.4348,7.26363 c 23.82,16.58094 50.616,41.6469 68.2378,63.83218 9.064,11.41117 21.7681,30.19974 20.9261,30.94832 -0.3147,0.27987 -9.8,6.71787 -21.0784,14.30667 -11.2783,7.58878 -21.3076,14.54045 -22.2873,15.4481 -1.4128,1.30896 0.2019,5.5861 7.8066,20.67819 9.5581,18.96896 18.1432,42.67046 22.2598,61.45429 1.1932,5.44472 2.4684,11.25021 2.8338,12.90108 0.592,2.67548 -0.2707,3.18551 -7.9402,4.69441 -4.7325,0.93106 -8.931,1.36631 -9.3301,0.96722 -0.3991,-0.39908 -1.6138,-5.05714 -2.6994,-10.35125 -1.0857,-5.29412 -3.6773,-15.24611 -5.7592,-22.11553 -3.3483,-11.04772 -4.123,-12.41498 -6.709,-11.84152 -1.6081,0.35658 -11.2677,4.15718 -21.466,8.44578 l -18.5424,7.79747 -3.0244,-7.29698 c -1.6634,-4.01334 -3.0244,-7.95646 -3.0244,-8.76251 0,-0.80603 8.9244,-5.17425 19.8321,-9.70716 10.9076,-4.53291 20.1581,-8.76933 20.5567,-9.41428 0.935,-1.51284 -4.8025,-12.79136 -14.4,-28.30688 -4.1822,-6.76107 -7.604,-12.60164 -7.604,-12.97902 0,-0.3774 10.1823,-7.49213 22.6274,-15.81051 12.4451,-8.31839 22.6274,-15.55642 22.6274,-16.08452 0,-2.16005 -21.2226,-27.24202 -33.1645,-39.19546 -11.652,-11.6633 -33.85,-30.36073 -35.9704,-30.2979 -0.4778,0.0142 -7.5508,10.19195 -15.7179,22.6173 -8.1671,12.42537 -15.32,22.59612 -15.8954,22.60168 -0.5755,0.006 -5.4797,-2.83163 -10.8983,-6.30489 -9.9651,-6.38749 -29.8012,-16.86746 -30.3782,-16.04962 -0.1723,0.24437 -8.2488,19.83882 -17.9476,43.54322 l -17.6341,43.09891 12.0821,7.56815 c 6.6452,4.16248 13.3549,8.69726 14.9106,10.07726 1.5556,1.38002 3.6962,3.00424 4.7568,3.60939 1.3569,0.77414 12.685,-9.65027 38.2186,-35.16973 l 36.2901,-36.26998 6.2277,6.34553 6.2276,6.34552 -35.6074,36.06104 c -19.584,19.83356 -35.6073,36.6884 -35.6073,37.45522 0,0.7668 3.2397,5.71895 7.1993,11.00477 13.8741,18.52074 25.6499,48.27952 27.6591,69.89741 l 0.9031,9.71675 h 28.2761 28.2762 l -0.8192,20.15252 c -0.4506,11.0839 -1.8548,24.9255 -3.1205,30.7592 -6.3617,29.3221 -20.2875,60.2937 -37.1464,82.6149 -5.2296,6.924 -10.1412,13.4415 -10.9145,14.4832 -1.0563,1.4228 1.8298,5.1299 11.6017,14.9018 l 13.0078,13.0078 3.0673,-2.7533 c 2.889,-2.5934 22.854,-28.6521 25.2983,-33.0199 0.8802,-1.5729 6.0849,1.3152 23.5707,13.0793 12.3425,8.3039 24.3144,16.5929 26.6042,18.42 l 4.1632,3.3221 -4.6642,7.2685 c -2.5653,3.9977 -4.8749,7.2685 -5.1325,7.2685 -0.2576,0 -8.9417,-5.7624 -19.298,-12.8053 l -18.8297,-12.8052 -2.8284,3.4026 c -1.5557,1.8714 -6.6162,8.0067 -11.2456,13.634 -9.4034,11.4301 -27.3447,28.7472 -38.5426,37.2017 l -7.3734,5.567 11.0318,16.4902 c 16.2542,24.2964 15.6439,21.8806 6.9979,27.7032 l -7.3557,4.9536 -11.9342,-17.9828 c -6.5638,-9.8906 -12.3959,-18.492 -12.9602,-19.1144 -0.5643,-0.6223 -7.6445,2.3677 -15.7337,6.6445 -16.5821,8.767 -38.3253,17.6122 -52.5379,21.3726 -7.0013,1.8523 -9.5459,3.1598 -9.5459,4.9047 0,1.3085 2.2273,13.4133 4.9497,26.8996 2.7224,13.4863 4.9497,24.9964 4.9497,25.5781 0,2.6229 -34.3363,7.657 -61.8718,9.0712 l -18.7383,0.9624 v -28.9108 -28.9108 l -13.0815,-0.929 c -30.3471,-2.1551 -62.8572,-11.5219 -93.6587,-26.985 -10.9076,-5.4759 -20.2441,-10.152 -20.7479,-10.3913 -0.5038,-0.2394 -5.4108,6.4374 -10.9044,14.8372 -7.7572,11.8607 -9.606,15.6423 -8.2764,16.928 2.9674,2.8697 27.1366,15.4551 41.5778,21.6505 14.8727,6.3804 41.2175,14.4292 56.364,17.22 8.3292,1.5347 9.2286,2.0208 8.5775,4.6358 -0.4001,1.6068 -1.1573,5.6261 -1.6828,8.9318 -1.176,7.3971 -1.3898,7.4144 -23.2215,1.8796 -21.7982,-5.5263 -44.8653,-13.9074 -64.0737,-23.2801 -15.0012,-7.3199 -39.0161,-21.5486 -43.2271,-25.6119 -1.6344,-1.577 1.2473,-6.6546 18.1917,-32.0547 11.0736,-16.5995 20.3524,-30.4188 20.6197,-30.7095 0.2673,-0.2908 5.7347,2.8383 12.1499,6.9534 35.3986,22.7073 77.0596,35.905 118.9185,37.6718 l 20.8596,0.8805 0.2254,5.0886 c 0.1239,2.7988 0.046,15.4301 -0.174,28.0696 l -0.3993,22.981 h 6.1844 c 6.2635,0 30.3041,-2.5309 33.2346,-3.4932 1.1059,-0.3632 0.1876,-7.5986 -2.9972,-23.6155 -2.5255,-12.7005 -4.957,-25.0595 -5.4034,-27.4644 l -0.8118,-4.3726 11.5872,-2.485 c 6.3729,-1.3667 16.5767,-4.0588 22.6751,-5.9823 13.0791,-4.1255 12.9168,-1.6066 1.8303,-28.4164 l -7.6407,-18.477 7.0958,-2.9489 c 3.9026,-1.6216 7.8568,-2.9486 8.7869,-2.9486 0.9302,0 5.4592,9.2264 10.0645,20.5032 4.6053,11.2768 8.9553,20.5045 9.6668,20.5061 4.9949,0.011 41.7572,-23.6052 54.4276,-34.9648 6.6028,-5.9196 7.4316,-7.2244 6.1158,-9.6281 -0.8371,-1.5292 -9.5415,-10.6284 -19.343,-20.2204 l -17.8209,-17.4401 10.6044,-11.2726 c 27.4852,-29.2169 45.9079,-69.7881 49.6051,-109.2422 l 1.0176,-10.8596 -18.9085,0.3958 -18.9084,0.3958 -1.0224,9.2557 c -1.4264,12.9126 -7.2603,32.468 -13.7797,46.1895 -21.2762,44.781 -63.0304,76.0359 -112.0747,83.8932 -16.7485,2.6833 -45.427,1.0979 -61.2136,-3.384 -15.811,-4.4888 -38.0564,-15.3987 -50.2729,-24.6556 -13.284,-10.0657 -30.6572,-29.234 -38.5652,-42.5499 -3.7476,-6.3103 -7.2722,-11.4733 -7.8326,-11.4733 -0.5604,0 -8.6311,3.2557 -17.935,7.2349 -9.3039,3.9791 -20.5851,8.7086 -25.0693,10.5099 l -8.1532,3.275 -2.2113,-5.2066 c -10.3639,-24.4018 -17.3622,-58.5627 -17.5083,-85.46321 l -0.037,-6.71751 h 9.0654 9.0655 l 0.8511,12.37432 c 1.7886,26.0053 7.1053,55.1846 10.7298,58.8884 1.2195,1.2462 8.7887,-1.3865 26.2704,-9.1372 l 8.606,-3.8156 -3.5229,-13.245 c -3.0556,-11.4886 -3.5228,-16.2459 -3.5228,-35.87254 0,-19.59409 0.4696,-24.39263 3.5034,-35.79531 l 3.5034,-13.1679 -5.051,-2.12773 c -46.0443,-19.39586 -79.2849,-33.05476 -80.443,-33.05476 -1.5314,0 -5.7782,11.93316 -9.3109,26.16295 -3.6381,14.65382 -6.514,37.99173 -6.514,52.86095 v 14.31424 h -32.5269 -32.5269 v -9.19244 -9.19238 h 23.1316 23.1316 l 0.9672,-13.08148 c 5.0029,-67.67091 40.7293,-136.62307 93.4839,-180.42438 7.0003,-5.81229 12.9258,-11.06538 13.1676,-11.67354 0.2419,-0.60817 -5.9961,-10.72879 -13.8622,-22.49029 -7.8661,-11.7615 -14.6228,-22.22057 -15.0149,-23.24238 -0.8723,-2.2732 16.7246,-13.81656 37.8615,-24.83672 l 15.0811,-7.86277 -6.9812,-16.8537 c -3.8396,-9.26953 -7.2182,-17.09079 -7.508,-17.38059 -0.8928,-0.89276 -28.7724,13.56369 -42.3235,21.94606 -41.2912,25.54168 -82.6486,65.842 -109.3452,106.55029 -11.5792,17.65664 -25.52538,44.49256 -33.68465,64.81774 -6.33472,15.78012 -16.28861,47.87326 -16.28861,52.51741 0,1.83041 3.36419,2.97856 15.90991,5.42981 8.75044,1.70971 16.89997,3.3936 18.11006,3.74196 1.69762,0.48873 2.79569,-1.71038 4.80759,-9.62777 12.5307,-49.31242 41.9137,-102.28138 76.8293,-138.50072 l 12.1565,-12.61044 6.3795,6.37947 6.3794,6.37948 -9.1745,9.59831 c -38.1805,39.94421 -66.2253,92.46381 -77.5971,145.31697 -1.6682,7.75296 -3.307,14.37035 -3.642,14.70531 -0.3349,0.33494 -12.4843,-1.76334 -26.9986,-4.66286 -20.10496,-4.01637 -26.64352,-4.86102 -27.45581,-3.54671 -2.24703,3.63576 -4.75521,35.64033 -4.70358,60.01814 0.047,22.18032 1.64525,43.84852 4.1289,55.97592 l 0.7475,3.65 47.66989,-9.6041 c 26.2184,-5.2823 48.7308,-9.6294 50.0275,-9.6604 1.7021,-0.041 2.7835,1.9292 3.8891,7.0843 0.8423,3.9274 1.5314,7.9306 1.5314,8.896 0,1.135 -7.6212,3.2575 -21.5668,6.0062 l -21.5667,4.2509 0.2288,4.7172 c 0.7177,14.7973 21.9648,65.2504 38.4566,91.3185 l 7.1575,11.3137 -3.4543,2.8643 c -1.8999,1.5753 -5.315,3.9633 -7.5891,5.3067 l -4.1347,2.4424 -8.4724,-13.7919 c -16.7435,-27.2563 -29.4614,-55.9226 -37.8034,-85.2098 -2.1047,-7.3893 -4.07614,-13.7092 -4.38093,-14.0443 -0.3048,-0.3351 -8.50013,0.8954 -18.21185,2.7344 -14.53827,2.7529 -17.65768,3.7774 -17.65768,5.7994 0,4.2021 9.42171,35.4285 14.91619,49.4369 15.15699,38.6432 41.84827,82.3143 66.12087,108.1841 l 7.3513,7.835 33.0622,-33.1431 33.0622,-33.143 -9.2299,-11.3396 c -16.5073,-20.2803 -28.6796,-40.0442 -38.5195,-62.5431 l -6.0333,-13.7952 8.5634,-3.695 c 4.7099,-2.0322 8.6571,-3.5371 8.7714,-3.3442 0.1144,0.1928 2.2933,5.4418 4.8422,11.6643 2.5488,6.2225 7.7886,16.8535 11.644,23.6243 10.904,19.1493 30.1617,44.9651 33.5425,44.9651 0.7166,0 8.0321,-7.0226 16.2568,-15.6057 8.2247,-8.5832 16.9029,-17.2456 19.2849,-19.2499 l 4.331,-3.6443 11.6288,11.1609 c 31.5382,30.269 72.989,47.6887 118.0484,49.6097 l 17.3241,0.7385 v 9.1993 9.1992 l -19.4454,-0.773 c -10.695,-0.4252 -23.9002,-1.7459 -29.3449,-2.9349 -33.6628,-7.3514 -67.3397,-23.6371 -91.1072,-44.0583 l -7.6686,-6.5889 -52.747,53.4963 c -29.0109,29.4229 -52.722,53.8145 -52.6914,54.2034 0.031,0.3889 4.9885,4.988 11.0174,10.2202 51.0166,44.2745 109.2511,71.8069 176.2262,83.3169 12.3674,2.1254 25.7934,3.1087 49.4975,3.6249 35.8361,0.7806 54.0244,-0.8476 84.1457,-7.5326 14.5085,-3.22 50.9117,-14.1357 50.9117,-15.2662 0,-0.2424 -3.8606,-9.8398 -8.5792,-21.3275 -4.7185,-11.4877 -8.0596,-21.3312 -7.4246,-21.8744 0.635,-0.5432 4.4284,-2.3041 8.4297,-3.9132 l 7.2752,-2.9255 8.2784,20.5446 c 4.5531,11.2995 9.0622,20.8453 10.0203,21.213 2.3961,0.9195 28.9307,-13.3571 47.7611,-25.6972 16.1549,-10.5867 40.9984,-29.8863 47.7031,-37.0579 l 3.8625,-4.1314 -16.2242,-16.1782 -16.2241,-16.1781 6.6705,-6.7724 6.6706,-6.7725 15.7804,16.6362 15.7805,16.6362 3.8428,-3.5355 c 2.1136,-1.9445 8.4892,-9.2995 14.1679,-16.3442 31.8371,-39.4955 55.4758,-86.1942 68.5598,-135.4405 8.669,-32.6291 10.5179,-48.6168 10.577,-91.46003 0.057,-41.36613 -1.0877,-52.7873 -8.4334,-84.14571 -3.4586,-14.76492 -11.1351,-39.65619 -13.2266,-42.88756 -0.958,-1.48026 -4.6087,-0.47952 -17.3273,4.74984 -8.8624,3.64388 -16.5469,6.88472 -17.0766,7.20187 -0.5297,0.31717 0.8905,6.06059 3.1561,12.76317 11.3361,33.53642 16.0161,63.16146 16.052,101.61128 0.043,45.38194 -6.6757,79.48114 -24.8808,126.28754 -2.258,5.8055 -1.2334,6.0343 -32.6504,-7.2918 -13.3943,-5.6815 -25.4658,-10.7353 -26.8255,-11.2308 -2.3215,-0.846 -2.2938,-1.3563 0.4547,-8.371 1.6097,-4.1085 3.4012,-7.9582 3.9811,-8.5548 0.5799,-0.5966 10.1812,2.7709 21.3364,7.4832 11.1551,4.7123 20.7541,8.0643 21.331,7.4487 4.4938,-4.7946 16.098,-54.5567 17.5748,-75.3654 0.4692,-6.6115 1.1717,-14.0891 1.5611,-16.6171 l 0.7079,-4.5961 h -18.9898 -18.9898 l -0.9483,10.9601 c -1.2689,14.6669 -5.032,37.5449 -6.4154,39.0031 -1.2177,1.2836 -12.6427,-0.055 -15.4901,-1.8145 -1.4126,-0.8731 -1.2948,-4.104 0.5755,-15.7844 1.2934,-8.0777 2.7199,-22.8007 3.17,-32.7179 l 0.8183,-18.03122 h 27.9366 27.9366 l -0.6585,-8.83884 c -1.2226,-16.41028 -4.8584,-39.86679 -8.4943,-54.80077 -3.4753,-14.27455 -12.5646,-41.59924 -15.9283,-47.88434 -1.8317,-3.42248 -1.4941,-3.6084 29.6043,-16.3016 22.2226,-9.07043 20.8284,-7.75385 17.2724,-16.31059 -4.3568,-10.48371 -17.8809,-34.168 -28.2545,-49.48143 -49.3466,-72.84465 -126.0723,-125.98152 -211.2229,-146.28382 l -3.6967,-0.8814 -3.1835,17.30277 c -1.7509,9.51653 -3.2694,17.81937 -3.3744,18.45075 -0.1049,0.63139 7.0968,3.3763 16.0038,6.0998 14.3514,4.38819 40.8737,13.99379 42.1427,15.26286 0.7809,0.78088 -6.4779,16.38024 -7.6221,16.38024 -0.5826,0 -7.6156,-2.56343 -15.629,-5.6965 -36.0512,-14.09533 -76.6073,-20.74011 -117.1106,-19.18764 -21.9984,0.84319 -36.5834,2.30625 -38.099,3.82183 -0.4746,0.47457 7.2643,42.58041 9.6419,52.45953 0.4618,1.91884 -1.0366,2.73873 -7.4023,4.05031 -8.5743,1.76667 -28.1768,7.25718 -34.4421,9.64696 l -3.8333,1.4622 6.8889,16.63104 c 3.7889,9.14706 7.4926,16.83228 8.2305,17.07824 0.7379,0.24596 6.9996,-1.19964 13.915,-3.21241 16.3143,-4.74843 36.3084,-7.73831 51.8179,-7.74875 l 12.3743,-0.008 0.1115,5.3033 c 0.061,2.91681 0.015,28.34897 -0.1024,56.5159 l -0.2138,51.21261 3.9915,0.81524 c 24.2437,4.95169 36.7845,11.46679 52.9426,27.50438 9.9568,9.88263 13.2328,14.28608 17.9377,24.11155 13.6126,28.42775 13.4511,56.3329 -0.4894,84.5762 -5.0977,10.3277 -8.702,15.3475 -16.755,23.3345 -18.2993,18.1494 -36.6321,26.3853 -61.3117,27.544 l -14.4957,0.6805 v -9.3777 -9.3778 h 9.6024 c 19.637,0 36.5381,-6.8628 51.3789,-20.8629 41.1265,-38.7967 25.9673,-108.37474 -27.478,-126.11889 -48.4868,-16.09795 -98.5572,20.13569 -98.5572,71.32139 0,19.2278 6.4741,36.0235 19.8974,51.6198 l 8.1839,9.5088 -6.2537,6.1375 -6.2537,6.1376 -5.0962,-4.882 c -29.3762,-28.1425 -37.218,-74.05273 -18.8646,-110.44398 13.9059,-27.57271 37.0084,-44.63657 69.5517,-51.3719 l 3.8891,-0.8049 V 855.5282 808.13027 l -7.4246,0.84314 c -12.8829,1.46299 -35.1008,6.42245 -45.4936,10.15505 -19.1728,6.88599 -43.6019,20.93362 -57.8063,33.24071 l -5.3656,4.64889 13.3869,13.29717 13.3869,13.29717 10.2936,-7.6309 c 9.6905,-7.18389 35.2172,-21.08476 38.7187,-21.08476 1.5276,0 8.6651,15.20056 7.5882,16.16019 -0.2851,0.25396 -6.0454,3.08416 -12.8008,6.28932 -12.6606,6.00694 -30.6736,18.68835 -39.2907,27.66122 l -4.9042,5.1067 -25.8549,-25.82661 c -14.2203,-14.20464 -25.855,-26.50705 -25.855,-27.33871 0,-2.16216 20.3952,-20.3731 32.7109,-29.20768 5.7448,-4.12096 15.0539,-9.91385 20.6869,-12.87308 5.633,-2.95923 10.2418,-5.70014 10.2418,-6.09093 0,-0.39079 -3.2518,-8.47014 -7.2262,-17.95411 -10.3138,-24.61096 -14.0185,-33.94768 -13.6243,-34.33609 1.2268,-1.20884 24.703,-9.78942 34.7466,-12.69994 6.6519,-1.92765 12.3865,-3.79694 12.7436,-4.15397 0.357,-0.35702 -1.7805,-12.75054 -4.7501,-27.54114 -2.9696,-14.79059 -5.0879,-27.20334 -4.7073,-27.58388 0.3805,-0.38053 8.2844,-2.04787 17.5642,-3.70519 22.4843,-4.01557 68.3631,-5.17027 89.7043,-2.25772 8.1671,1.11461 15.2483,1.63404 15.7359,1.15429 0.4877,-0.47974 2.6118,-10.1 4.7202,-21.37836 2.1085,-11.27835 4.5045,-23.26949 5.3245,-26.64697 l 1.491,-6.14088 6.5167,0.97322 c 3.5843,0.53528 13.5796,2.80517 22.212,5.04421 138.0012,35.79442 244.5951,148.57119 273.5823,289.45102 7.117,34.58929 9.4765,82.74025 5.7004,116.32865 -8.1486,72.4814 -36.5142,140.9436 -82.0297,197.9837 -49.2194,61.6818 -122.2578,108.5975 -199.2779,128.0048 -41.0666,10.3478 -76.6815,13.4814 -118.7886,10.4517 z"
       id="path11566"
       transform="scale(0.26458333)" /><path
       style="fill:#000000;fill-opacity:0;stroke-width:27.9095;stroke-dasharray:none"
       d="m 1282.2252,1373.7659 c -31.9311,-2.2975 -69.1428,-10.3952 -100.1406,-21.7918 -33.7422,-12.4056 -76.3663,-36.5396 -105.161,-59.5428 -15.5539,-12.4255 -44.8908,-41.7927 -57.0569,-57.1158 -68.45319,-86.2161 -96.79532,-194.6218 -78.65488,-300.84648 16.36024,-95.80041 67.98298,-181.16358 144.91928,-239.63797 59.562,-45.26923 133.9668,-71.90532 207.5208,-74.2901 l 25.1022,-0.81388 v 9.39518 9.39517 h -13.8965 c -19.8069,0 -41.6304,2.37095 -65.4382,7.10936 -20.1342,4.00723 -56.4298,14.81194 -56.4298,16.79836 0,0.54673 4.7357,12.41476 10.5236,26.37339 10.3503,24.96132 10.4726,25.39986 7.4247,26.62671 -7.7976,3.13865 -43.0511,20.97409 -46.0549,23.30005 l -3.3579,2.60015 15.5709,23.13117 15.5709,23.13117 -10.3384,7.13566 c -27.6762,19.10225 -52.1574,45.06776 -69.4422,73.65262 -7.3909,12.22271 -14.0843,25.79468 -13.121,26.60481 0.3263,0.27447 23.3445,9.95224 51.1515,21.5062 27.807,11.55394 50.5581,21.779 50.5581,22.72237 0,0.94335 -1.3205,4.79084 -2.9345,8.54995 -6.1116,14.2341 -8.9024,29.75241 -8.8591,49.26117 0.046,20.66014 2.2891,33.03344 9.064,49.99724 15.064,37.719 47.6424,66.7388 87.5824,78.0158 16.1035,4.5468 42.151,5.299 59.4112,1.7156 53.1974,-11.0441 92.5133,-51.2641 103.3114,-105.687 0.9259,-4.6669 1.6403,-16.122 1.5875,-25.45585 -0.1999,-35.31898 -13.1164,-66.62479 -37.8127,-91.64643 -11.4627,-11.61367 -22.2755,-19.13825 -38.755,-26.96945 l -12.3668,-5.87682 1.893,-4.22168 c 6.0026,-13.38608 40.1112,-97.52599 40.1112,-98.94718 0,-2.11518 -20.0856,-8.34392 -38.8909,-12.06045 -7.7782,-1.53722 -23.2108,-3.21686 -34.2947,-3.73254 l -20.1525,-0.9376 v -9.17767 -9.17766 l 20.8596,0.82662 c 22.2681,0.88243 36.3325,3.00084 57.7249,8.69467 16.5319,4.40013 41.5484,14.54756 56.2718,22.82549 6.112,3.43631 11.6329,6.24785 12.2687,6.24785 0.6358,0 5.3885,-6.52306 10.5615,-14.49569 5.173,-7.97263 12.0547,-18.40072 15.2927,-23.17353 l 5.8873,-8.67785 10.4348,7.26363 c 23.82,16.58094 50.616,41.6469 68.2378,63.83218 9.064,11.41117 21.7681,30.19974 20.9261,30.94832 -0.3147,0.27987 -9.8,6.71787 -21.0784,14.30667 -11.2783,7.58878 -21.3076,14.54045 -22.2873,15.4481 -1.4128,1.30896 0.2019,5.5861 7.8066,20.67819 9.5581,18.96896 18.1432,42.67046 22.2598,61.45429 1.1932,5.44472 2.4684,11.25021 2.8338,12.90108 0.592,2.67548 -0.2707,3.18551 -7.9402,4.69441 -4.7325,0.93106 -8.931,1.36631 -9.3301,0.96722 -0.3991,-0.39908 -1.6138,-5.05714 -2.6994,-10.35125 -1.0857,-5.29412 -3.6773,-15.24611 -5.7592,-22.11553 -3.3483,-11.04772 -4.123,-12.41498 -6.709,-11.84152 -1.6081,0.35658 -11.2677,4.15718 -21.466,8.44578 l -18.5424,7.79747 -3.0244,-7.29698 c -1.6634,-4.01334 -3.0244,-7.95646 -3.0244,-8.76251 0,-0.80603 8.9244,-5.17425 19.8321,-9.70716 10.9076,-4.53291 20.1581,-8.76933 20.5567,-9.41428 0.935,-1.51284 -4.8025,-12.79136 -14.4,-28.30688 -4.1822,-6.76107 -7.604,-12.60164 -7.604,-12.97902 0,-0.3774 10.1823,-7.49213 22.6274,-15.81051 12.4451,-8.31839 22.6274,-15.55642 22.6274,-16.08452 0,-2.16005 -21.2226,-27.24202 -33.1645,-39.19546 -11.652,-11.6633 -33.85,-30.36073 -35.9704,-30.2979 -0.4778,0.0142 -7.5508,10.19195 -15.7179,22.6173 -8.1671,12.42537 -15.32,22.59612 -15.8954,22.60168 -0.5755,0.006 -5.4797,-2.83163 -10.8983,-6.30489 -9.9651,-6.38749 -29.8012,-16.86746 -30.3782,-16.04962 -0.1723,0.24437 -8.2488,19.83882 -17.9476,43.54322 l -17.6341,43.09891 12.0821,7.56815 c 6.6452,4.16248 13.3549,8.69726 14.9106,10.07726 1.5556,1.38002 3.6962,3.00424 4.7568,3.60939 1.3569,0.77414 12.685,-9.65027 38.2186,-35.16973 l 36.2901,-36.26998 6.2277,6.34553 6.2276,6.34552 -35.6074,36.06104 c -19.584,19.83356 -35.6073,36.6884 -35.6073,37.45522 0,0.7668 3.2397,5.71895 7.1993,11.00477 13.8741,18.52074 25.6499,48.27952 27.6591,69.89741 l 0.9031,9.71675 h 28.2761 28.2762 l -0.8192,20.15252 c -0.4506,11.0839 -1.8548,24.9255 -3.1205,30.7592 -6.3617,29.3221 -20.2875,60.2937 -37.1464,82.6149 -5.2296,6.924 -10.1412,13.4415 -10.9145,14.4832 -1.0563,1.4228 1.8298,5.1299 11.6017,14.9018 l 13.0078,13.0078 3.0673,-2.7533 c 2.889,-2.5934 22.854,-28.6521 25.2983,-33.0199 0.8802,-1.5729 6.0849,1.3152 23.5707,13.0793 12.3425,8.3039 24.3144,16.5929 26.6042,18.42 l 4.1632,3.3221 -4.6642,7.2685 c -2.5653,3.9977 -4.8749,7.2685 -5.1325,7.2685 -0.2576,0 -8.9417,-5.7624 -19.298,-12.8053 l -18.8297,-12.8052 -2.8284,3.4026 c -1.5557,1.8714 -6.6162,8.0067 -11.2456,13.634 -9.4034,11.4301 -27.3447,28.7472 -38.5426,37.2017 l -7.3734,5.567 11.0318,16.4902 c 16.2542,24.2964 15.6439,21.8806 6.9979,27.7032 l -7.3557,4.9536 -11.9342,-17.9828 c -6.5638,-9.8906 -12.3959,-18.492 -12.9602,-19.1144 -0.5643,-0.6223 -7.6445,2.3677 -15.7337,6.6445 -16.5821,8.767 -38.3253,17.6122 -52.5379,21.3726 -7.0013,1.8523 -9.5459,3.1598 -9.5459,4.9047 0,1.3085 2.2273,13.4133 4.9497,26.8996 2.7224,13.4863 4.9497,24.9964 4.9497,25.5781 0,2.6229 -34.3363,7.657 -61.8718,9.0712 l -18.7383,0.9624 v -28.9108 -28.9108 l -13.0815,-0.929 c -30.3471,-2.1551 -62.8572,-11.5219 -93.6587,-26.985 -10.9076,-5.4759 -20.2441,-10.152 -20.7479,-10.3913 -0.5038,-0.2394 -5.4108,6.4374 -10.9044,14.8372 -7.7572,11.8607 -9.606,15.6423 -8.2764,16.928 2.9674,2.8697 27.1366,15.4551 41.5778,21.6505 14.8727,6.3804 41.2175,14.4292 56.364,17.22 8.3292,1.5347 9.2286,2.0208 8.5775,4.6358 -0.4001,1.6068 -1.1573,5.6261 -1.6828,8.9318 -1.176,7.3971 -1.3898,7.4144 -23.2215,1.8796 -21.7982,-5.5263 -44.8653,-13.9074 -64.0737,-23.2801 -15.0012,-7.3199 -39.0161,-21.5486 -43.2271,-25.6119 -1.6344,-1.577 1.2473,-6.6546 18.1917,-32.0547 11.0736,-16.5995 20.3524,-30.4188 20.6197,-30.7095 0.2673,-0.2908 5.7347,2.8383 12.1499,6.9534 35.3986,22.7073 77.0596,35.905 118.9185,37.6718 l 20.8596,0.8805 0.2254,5.0886 c 0.1239,2.7988 0.046,15.4301 -0.174,28.0696 l -0.3993,22.981 h 6.1844 c 6.2635,0 30.3041,-2.5309 33.2346,-3.4932 1.1059,-0.3632 0.1876,-7.5986 -2.9972,-23.6155 -2.5255,-12.7005 -4.957,-25.0595 -5.4034,-27.4644 l -0.8118,-4.3726 11.5872,-2.485 c 6.3729,-1.3667 16.5767,-4.0588 22.6751,-5.9823 13.0791,-4.1255 12.9168,-1.6066 1.8303,-28.4164 l -7.6407,-18.477 7.0958,-2.9489 c 3.9026,-1.6216 7.8568,-2.9486 8.7869,-2.9486 0.9302,0 5.4592,9.2264 10.0645,20.5032 4.6053,11.2768 8.9553,20.5045 9.6668,20.5061 4.9949,0.011 41.7572,-23.6052 54.4276,-34.9648 6.6028,-5.9196 7.4316,-7.2244 6.1158,-9.6281 -0.8371,-1.5292 -9.5415,-10.6284 -19.343,-20.2204 l -17.8209,-17.4401 10.6044,-11.2726 c 27.4852,-29.2169 45.9079,-69.7881 49.6051,-109.2422 l 1.0176,-10.8596 -18.9085,0.3958 -18.9084,0.3958 -1.0224,9.2557 c -1.4264,12.9126 -7.2603,32.468 -13.7797,46.1895 -21.2762,44.781 -63.0304,76.0359 -112.0747,83.8932 -16.7485,2.6833 -45.427,1.0979 -61.2136,-3.384 -15.811,-4.4888 -38.0564,-15.3987 -50.2729,-24.6556 -13.284,-10.0657 -30.6572,-29.234 -38.5652,-42.5499 -3.7476,-6.3103 -7.2722,-11.4733 -7.8326,-11.4733 -0.5604,0 -8.6311,3.2557 -17.935,7.2349 -9.3039,3.9791 -20.5851,8.7086 -25.0693,10.5099 l -8.1532,3.275 -2.2113,-5.2066 c -10.3639,-24.4018 -17.3622,-58.5627 -17.5083,-85.46321 l -0.037,-6.71751 h 9.0654 9.0655 l 0.8511,12.37432 c 1.7886,26.0053 7.1053,55.1846 10.7298,58.8884 1.2195,1.2462 8.7887,-1.3865 26.2704,-9.1372 l 8.606,-3.8156 -3.5229,-13.245 c -3.0556,-11.4886 -3.5228,-16.2459 -3.5228,-35.87254 0,-19.59409 0.4696,-24.39263 3.5034,-35.79531 l 3.5034,-13.1679 -5.051,-2.12773 c -46.0443,-19.39586 -79.2849,-33.05476 -80.443,-33.05476 -1.5314,0 -5.7782,11.93316 -9.3109,26.16295 -3.6381,14.65382 -6.514,37.99173 -6.514,52.86095 v 14.31424 h -32.5269 -32.5269 v -9.19244 -9.19238 h 23.1316 23.1316 l 0.9672,-13.08148 c 5.0029,-67.67091 40.7293,-136.62307 93.4839,-180.42438 7.0003,-5.81229 12.9258,-11.06538 13.1676,-11.67354 0.2419,-0.60817 -5.9961,-10.72879 -13.8622,-22.49029 -7.8661,-11.7615 -14.6228,-22.22057 -15.0149,-23.24238 -0.8723,-2.2732 16.7246,-13.81656 37.8615,-24.83672 l 15.0811,-7.86277 -6.9812,-16.8537 c -3.8396,-9.26953 -7.2182,-17.09079 -7.508,-17.38059 -0.8928,-0.89276 -28.7724,13.56369 -42.3235,21.94606 -41.2912,25.54168 -82.6486,65.842 -109.3452,106.55029 -11.5792,17.65664 -25.52538,44.49256 -33.68465,64.81774 -6.33472,15.78012 -16.28861,47.87326 -16.28861,52.51741 0,1.83041 3.36419,2.97856 15.90991,5.42981 8.75044,1.70971 16.89997,3.3936 18.11006,3.74196 1.69762,0.48873 2.79569,-1.71038 4.80759,-9.62777 12.5307,-49.31242 41.9137,-102.28138 76.8293,-138.50072 l 12.1565,-12.61044 6.3795,6.37947 6.3794,6.37948 -9.1745,9.59831 c -38.1805,39.94421 -66.2253,92.46381 -77.5971,145.31697 -1.6682,7.75296 -3.307,14.37035 -3.642,14.70531 -0.3349,0.33494 -12.4843,-1.76334 -26.9986,-4.66286 -20.10496,-4.01637 -26.64352,-4.86102 -27.45581,-3.54671 -2.24703,3.63576 -4.75521,35.64033 -4.70358,60.01814 0.047,22.18032 1.64525,43.84852 4.1289,55.97592 l 0.7475,3.65 47.66989,-9.6041 c 26.2184,-5.2823 48.7308,-9.6294 50.0275,-9.6604 1.7021,-0.041 2.7835,1.9292 3.8891,7.0843 0.8423,3.9274 1.5314,7.9306 1.5314,8.896 0,1.135 -7.6212,3.2575 -21.5668,6.0062 l -21.5667,4.2509 0.2288,4.7172 c 0.7177,14.7973 21.9648,65.2504 38.4566,91.3185 l 7.1575,11.3137 -3.4543,2.8643 c -1.8999,1.5753 -5.315,3.9633 -7.5891,5.3067 l -4.1347,2.4424 -8.4724,-13.7919 c -16.7435,-27.2563 -29.4614,-55.9226 -37.8034,-85.2098 -2.1047,-7.3893 -4.07614,-13.7092 -4.38093,-14.0443 -0.3048,-0.3351 -8.50013,0.8954 -18.21185,2.7344 -14.53827,2.7529 -17.65768,3.7774 -17.65768,5.7994 0,4.2021 9.42171,35.4285 14.91619,49.4369 15.15699,38.6432 41.84827,82.3143 66.12087,108.1841 l 7.3513,7.835 33.0622,-33.1431 33.0622,-33.143 -9.2299,-11.3396 c -16.5073,-20.2803 -28.6796,-40.0442 -38.5195,-62.5431 l -6.0333,-13.7952 8.5634,-3.695 c 4.7099,-2.0322 8.6571,-3.5371 8.7714,-3.3442 0.1144,0.1928 2.2933,5.4418 4.8422,11.6643 2.5488,6.2225 7.7886,16.8535 11.644,23.6243 10.904,19.1493 30.1617,44.9651 33.5425,44.9651 0.7166,0 8.0321,-7.0226 16.2568,-15.6057 8.2247,-8.5832 16.9029,-17.2456 19.2849,-19.2499 l 4.331,-3.6443 11.6288,11.1609 c 31.5382,30.269 72.989,47.6887 118.0484,49.6097 l 17.3241,0.7385 v 9.1993 9.1992 l -19.4454,-0.773 c -10.695,-0.4252 -23.9002,-1.7459 -29.3449,-2.9349 -33.6628,-7.3514 -67.3397,-23.6371 -91.1072,-44.0583 l -7.6686,-6.5889 -52.747,53.4963 c -29.0109,29.4229 -52.722,53.8145 -52.6914,54.2034 0.031,0.3889 4.9885,4.988 11.0174,10.2202 51.0166,44.2745 109.2511,71.8069 176.2262,83.3169 12.3674,2.1254 25.7934,3.1087 49.4975,3.6249 35.8361,0.7806 54.0244,-0.8476 84.1457,-7.5326 14.5085,-3.22 50.9117,-14.1357 50.9117,-15.2662 0,-0.2424 -3.8606,-9.8398 -8.5792,-21.3275 -4.7185,-11.4877 -8.0596,-21.3312 -7.4246,-21.8744 0.635,-0.5432 4.4284,-2.3041 8.4297,-3.9132 l 7.2752,-2.9255 8.2784,20.5446 c 4.5531,11.2995 9.0622,20.8453 10.0203,21.213 2.3961,0.9195 28.9307,-13.3571 47.7611,-25.6972 16.1549,-10.5867 40.9984,-29.8863 47.7031,-37.0579 l 3.8625,-4.1314 -16.2242,-16.1782 -16.2241,-16.1781 6.6705,-6.7724 6.6706,-6.7725 15.7804,16.6362 15.7805,16.6362 3.8428,-3.5355 c 2.1136,-1.9445 8.4892,-9.2995 14.1679,-16.3442 31.8371,-39.4955 55.4758,-86.1942 68.5598,-135.4405 8.669,-32.6291 10.5179,-48.6168 10.577,-91.46003 0.057,-41.36613 -1.0877,-52.7873 -8.4334,-84.14571 -3.4586,-14.76492 -11.1351,-39.65619 -13.2266,-42.88756 -0.958,-1.48026 -4.6087,-0.47952 -17.3273,4.74984 -8.8624,3.64388 -16.5469,6.88472 -17.0766,7.20187 -0.5297,0.31717 0.8905,6.06059 3.1561,12.76317 11.3361,33.53642 16.0161,63.16146 16.052,101.61128 0.043,45.38194 -6.6757,79.48114 -24.8808,126.28754 -2.258,5.8055 -1.2334,6.0343 -32.6504,-7.2918 -13.3943,-5.6815 -25.4658,-10.7353 -26.8255,-11.2308 -2.3215,-0.846 -2.2938,-1.3563 0.4547,-8.371 1.6097,-4.1085 3.4012,-7.9582 3.9811,-8.5548 0.5799,-0.5966 10.1812,2.7709 21.3364,7.4832 11.1551,4.7123 20.7541,8.0643 21.331,7.4487 4.4938,-4.7946 16.098,-54.5567 17.5748,-75.3654 0.4692,-6.6115 1.1717,-14.0891 1.5611,-16.6171 l 0.7079,-4.5961 h -18.9898 -18.9898 l -0.9483,10.9601 c -1.2689,14.6669 -5.032,37.5449 -6.4154,39.0031 -1.2177,1.2836 -12.6427,-0.055 -15.4901,-1.8145 -1.4126,-0.8731 -1.2948,-4.104 0.5755,-15.7844 1.2934,-8.0777 2.7199,-22.8007 3.17,-32.7179 l 0.8183,-18.03122 h 27.9366 27.9366 l -0.6585,-8.83884 c -1.2226,-16.41028 -4.8584,-39.86679 -8.4943,-54.80077 -3.4753,-14.27455 -12.5646,-41.59924 -15.9283,-47.88434 -1.8317,-3.42248 -1.4941,-3.6084 29.6043,-16.3016 22.2226,-9.07043 20.8284,-7.75385 17.2724,-16.31059 -4.3568,-10.48371 -17.8809,-34.168 -28.2545,-49.48143 -49.3466,-72.84465 -126.0723,-125.98152 -211.2229,-146.28382 l -3.6967,-0.8814 -3.1835,17.30277 c -1.7509,9.51653 -3.2694,17.81937 -3.3744,18.45075 -0.1049,0.63139 7.0968,3.3763 16.0038,6.0998 14.3514,4.38819 40.8737,13.99379 42.1427,15.26286 0.7809,0.78088 -6.4779,16.38024 -7.6221,16.38024 -0.5826,0 -7.6156,-2.56343 -15.629,-5.6965 -36.0512,-14.09533 -76.6073,-20.74011 -117.1106,-19.18764 -21.9984,0.84319 -36.5834,2.30625 -38.099,3.82183 -0.4746,0.47457 7.2643,42.58041 9.6419,52.45953 0.4618,1.91884 -1.0366,2.73873 -7.4023,4.05031 -8.5743,1.76667 -28.1768,7.25718 -34.4421,9.64696 l -3.8333,1.4622 6.8889,16.63104 c 3.7889,9.14706 7.4926,16.83228 8.2305,17.07824 0.7379,0.24596 6.9996,-1.19964 13.915,-3.21241 16.3143,-4.74843 36.3084,-7.73831 51.8179,-7.74875 l 12.3743,-0.008 0.1115,5.3033 c 0.061,2.91681 0.015,28.34897 -0.1024,56.5159 l -0.2138,51.21261 3.9915,0.81524 c 24.2437,4.95169 36.7845,11.46679 52.9426,27.50438 9.9568,9.88263 13.2328,14.28608 17.9377,24.11155 13.6126,28.42775 13.4511,56.3329 -0.4894,84.5762 -5.0977,10.3277 -8.702,15.3475 -16.755,23.3345 -18.2993,18.1494 -36.6321,26.3853 -61.3117,27.544 l -14.4957,0.6805 v -9.3777 -9.3778 h 9.6024 c 19.637,0 36.5381,-6.8628 51.3789,-20.8629 41.1265,-38.7967 25.9673,-108.37474 -27.478,-126.11889 -48.4868,-16.09795 -98.5572,20.13569 -98.5572,71.32139 0,19.2278 6.4741,36.0235 19.8974,51.6198 l 8.1839,9.5088 -6.2537,6.1375 -6.2537,6.1376 -5.0962,-4.882 c -29.3762,-28.1425 -37.218,-74.05273 -18.8646,-110.44398 13.9059,-27.57271 37.0084,-44.63657 69.5517,-51.3719 l 3.8891,-0.8049 V 855.5282 808.13027 l -7.4246,0.84314 c -12.8829,1.46299 -35.1008,6.42245 -45.4936,10.15505 -19.1728,6.88599 -43.6019,20.93362 -57.8063,33.24071 l -5.3656,4.64889 13.3869,13.29717 13.3869,13.29717 10.2936,-7.6309 c 9.6905,-7.18389 35.2172,-21.08476 38.7187,-21.08476 1.5276,0 8.6651,15.20056 7.5882,16.16019 -0.2851,0.25396 -6.0454,3.08416 -12.8008,6.28932 -12.6606,6.00694 -30.6736,18.68835 -39.2907,27.66122 l -4.9042,5.1067 -25.8549,-25.82661 c -14.2203,-14.20464 -25.855,-26.50705 -25.855,-27.33871 0,-2.16216 20.3952,-20.3731 32.7109,-29.20768 5.7448,-4.12096 15.0539,-9.91385 20.6869,-12.87308 5.633,-2.95923 10.2418,-5.70014 10.2418,-6.09093 0,-0.39079 -3.2518,-8.47014 -7.2262,-17.95411 -10.3138,-24.61096 -14.0185,-33.94768 -13.6243,-34.33609 1.2268,-1.20884 24.703,-9.78942 34.7466,-12.69994 6.6519,-1.92765 12.3865,-3.79694 12.7436,-4.15397 0.357,-0.35702 -1.7805,-12.75054 -4.7501,-27.54114 -2.9696,-14.79059 -5.0879,-27.20334 -4.7073,-27.58388 0.3805,-0.38053 8.2844,-2.04787 17.5642,-3.70519 22.4843,-4.01557 68.3631,-5.17027 89.7043,-2.25772 8.1671,1.11461 15.2483,1.63404 15.7359,1.15429 0.4877,-0.47974 2.6118,-10.1 4.7202,-21.37836 2.1085,-11.27835 4.5045,-23.26949 5.3245,-26.64697 l 1.491,-6.14088 6.5167,0.97322 c 3.5843,0.53528 13.5796,2.80517 22.212,5.04421 138.0012,35.79442 244.5951,148.57119 273.5823,289.45102 7.117,34.58929 9.4765,82.74025 5.7004,116.32865 -8.1486,72.4814 -36.5142,140.9436 -82.0297,197.9837 -49.2194,61.6818 -122.2578,108.5975 -199.2779,128.0048 -41.0666,10.3478 -76.6815,13.4814 -118.7886,10.4517 z"
       id="path11568"
       transform="scale(0.26458333)" /><g
       id="g16232"
       style="stroke:#e69f00;stroke-width:3.91124;stroke-dasharray:none;stroke-opacity:1"
       transform="matrix(1.0147039,0,0,1.0147039,-359.0053,-33.955271)"><g
         fill="none"
         stroke="#000000"
         stroke-width="2"
         stroke-linecap="square"
         id="g15860"
         transform="matrix(1.6877401,0,0,1.7367997,77.152379,194.06366)"
         style="stroke:#e69f00;stroke-width:2.28448;stroke-dasharray:none;stroke-opacity:1"><path
           d="M 42.029437,75.970563 A 24,24 0 1 1 59,83"
           id="path15848"
           style="stroke:#e69f00;stroke-width:2.28448;stroke-dasharray:none;stroke-opacity:1" /><path
           d="m 30.715729,30.715729 a 40,40 0 0 1 43.591608,-8.67091"
           id="path15850"
           style="stroke:#e69f00;stroke-width:2.28448;stroke-dasharray:none;stroke-opacity:1" /><path
           d="M 95.955181,43.692663 A 40,40 0 0 1 99,59"
           id="path15852"
           style="stroke:#e69f00;stroke-width:2.28448;stroke-dasharray:none;stroke-opacity:1" /><path
           d="m 95.955181,74.307337 a 40,40 0 0 1 -8.67091,12.976934"
           id="path15854"
           style="stroke:#e69f00;stroke-width:2.28448;stroke-dasharray:none;stroke-opacity:1" /><path
           d="M 59,99 A 40,40 0 0 1 22.044819,43.692663"
           id="path15856"
           style="stroke:#e69f00;stroke-width:2.28448;stroke-dasharray:none;stroke-opacity:1" /><path
           d="M 80.430272,7.2627462 A 56,56 0 1 1 59,3"
           id="path15858"
           style="stroke:#e69f00;stroke-width:2.28448;stroke-dasharray:none;stroke-opacity:1" /></g><g
         fill="none"
         stroke="#000000"
         stroke-width="2"
         stroke-linecap="butt"
         id="g15876"
         transform="matrix(1.6877401,0,0,1.7367997,77.152379,194.06366)"
         style="stroke:#e69f00;stroke-width:2.28448;stroke-dasharray:none;stroke-opacity:1"><line
           x1="80.430275"
           y1="7.2627463"
           x2="74.307335"
           y2="22.044819"
           id="line15862"
           style="stroke:#e69f00;stroke-width:2.28448;stroke-dasharray:none;stroke-opacity:1" /><line
           x1="87.284271"
           y1="30.715729"
           x2="75.970566"
           y2="42.029438"
           id="line15864"
           style="stroke:#e69f00;stroke-width:2.28448;stroke-dasharray:none;stroke-opacity:1" /><line
           x1="110.73725"
           y1="37.569729"
           x2="95.955185"
           y2="43.692661"
           id="line15866"
           style="stroke:#e69f00;stroke-width:2.28448;stroke-dasharray:none;stroke-opacity:1" /><line
           x1="87.284271"
           y1="87.284271"
           x2="75.970566"
           y2="75.970566"
           id="line15868"
           style="stroke:#e69f00;stroke-width:2.28448;stroke-dasharray:none;stroke-opacity:1" /><line
           x1="80.430275"
           y1="110.73725"
           x2="74.307335"
           y2="95.955185"
           id="line15870"
           style="stroke:#e69f00;stroke-width:2.28448;stroke-dasharray:none;stroke-opacity:1" /><line
           x1="7.2627463"
           y1="37.569729"
           x2="22.044819"
           y2="43.692661"
           id="line15872"
           style="stroke:#e69f00;stroke-width:2.28448;stroke-dasharray:none;stroke-opacity:1" /><line
           x1="30.715729"
           y1="30.715729"
           x2="42.029438"
           y2="42.029438"
           id="line15874"
           style="stroke:#e69f00;stroke-width:2.28448;stroke-dasharray:none;stroke-opacity:1" /></g></g><g
       id="g17999"
       transform="matrix(6.490697,0,0,6.490697,800.96573,-1770.577)"
       style="stroke:#e69f00;stroke-width:0.611452;stroke-dasharray:none;stroke-opacity:1"><g
         fill="none"
         stroke="#000000"
         stroke-width="2"
         stroke-linecap="square"
         id="g17876"
         transform="matrix(0.26458333,0,0,0.26458333,-124.87134,299.45068)"
         style="stroke:#e69f00;stroke-width:2.311;stroke-dasharray:none;stroke-opacity:1"><path
           d="M 42.029437,75.970563 A 24,24 0 1 1 59,83"
           id="path17864"
           style="stroke:#e69f00;stroke-width:2.311;stroke-dasharray:none;stroke-opacity:1" /><path
           d="M 22.044819,43.692663 A 40,40 0 0 1 74.307337,22.044819"
           id="path17866"
           style="stroke:#e69f00;stroke-width:2.311;stroke-dasharray:none;stroke-opacity:1" /><path
           d="m 95.955181,43.692663 a 40,40 0 0 1 0,30.614674"
           id="path17868"
           style="stroke:#e69f00;stroke-width:2.311;stroke-dasharray:none;stroke-opacity:1" /><path
           d="m 87.284271,87.284271 a 40,40 0 0 1 -12.976934,8.67091"
           id="path17870"
           style="stroke:#e69f00;stroke-width:2.311;stroke-dasharray:none;stroke-opacity:1" /><path
           d="M 59,99 A 40,40 0 0 1 22.044819,74.307337"
           id="path17872"
           style="stroke:#e69f00;stroke-width:2.311;stroke-dasharray:none;stroke-opacity:1" /><path
           d="M 80.430272,7.2627462 A 56,56 0 1 1 59,3"
           id="path17874"
           style="stroke:#e69f00;stroke-width:2.311;stroke-dasharray:none;stroke-opacity:1" /></g><g
         fill="none"
         stroke="#000000"
         stroke-width="2"
         stroke-linecap="butt"
         id="g17890"
         transform="matrix(0.26458333,0,0,0.26458333,-124.87134,299.45068)"
         style="stroke:#e69f00;stroke-width:2.311;stroke-dasharray:none;stroke-opacity:1"><line
           x1="59"
           y1="3"
           x2="59"
           y2="19"
           id="line17878"
           style="stroke:#e69f00;stroke-width:2.311;stroke-dasharray:none;stroke-opacity:1" /><line
           x1="98.597977"
           y1="19.40202"
           x2="75.970566"
           y2="42.029438"
           id="line17880"
           style="stroke:#e69f00;stroke-width:2.311;stroke-dasharray:none;stroke-opacity:1" /><line
           x1="110.73725"
           y1="80.430275"
           x2="95.955185"
           y2="74.307335"
           id="line17882"
           style="stroke:#e69f00;stroke-width:2.311;stroke-dasharray:none;stroke-opacity:1" /><line
           x1="87.284271"
           y1="87.284271"
           x2="75.970566"
           y2="75.970566"
           id="line17884"
           style="stroke:#e69f00;stroke-width:2.311;stroke-dasharray:none;stroke-opacity:1" /><line
           x1="7.2627463"
           y1="80.430275"
           x2="22.044819"
           y2="74.307335"
           id="line17886"
           style="stroke:#e69f00;stroke-width:2.311;stroke-dasharray:none;stroke-opacity:1" /><line
           x1="19"
           y1="59"
           x2="35"
           y2="59"
           id="line17888"
           style="stroke:#e69f00;stroke-width:2.311;stroke-dasharray:none;stroke-opacity:1" /></g></g><g
       id="g25225"
       transform="matrix(4.1571294,0,0,4.1571294,-352.33142,-1479.7374)"
       style="stroke:#e69f00;stroke-width:0.954685;stroke-dasharray:none;stroke-opacity:1"><g
         fill="none"
         stroke="#000000"
         stroke-width="2"
         stroke-linecap="square"
         id="g24601"
         transform="matrix(0.26458333,0,0,0.26458333,81.439411,450.3902)"
         style="stroke:#e69f00;stroke-width:3.60826;stroke-dasharray:none;stroke-opacity:1"><path
           d="M 74.029437,107.97056 A 24,24 0 1 1 91,115"
           id="path24567"
           style="stroke:#e69f00;stroke-width:3.60826;stroke-dasharray:none;stroke-opacity:1" /><path
           d="M 75.692663,127.95518 A 40,40 0 0 1 91,51"
           id="path24569"
           style="stroke:#e69f00;stroke-width:3.60826;stroke-dasharray:none;stroke-opacity:1" /><path
           d="m 106.30734,54.044819 a 40,40 0 0 1 12.97693,8.67091"
           id="path24571"
           style="stroke:#e69f00;stroke-width:3.60826;stroke-dasharray:none;stroke-opacity:1" /><path
           d="m 131,91 a 40,40 0 0 1 -11.71573,28.28427"
           id="path24573"
           style="stroke:#e69f00;stroke-width:3.60826;stroke-dasharray:none;stroke-opacity:1" /><path
           d="M 106.30734,127.95518 A 40,40 0 0 1 91,131"
           id="path24575"
           style="stroke:#e69f00;stroke-width:3.60826;stroke-dasharray:none;stroke-opacity:1" /><path
           d="m 69.569728,39.262746 a 56,56 0 0 1 42.860542,0"
           id="path24577"
           style="stroke:#e69f00;stroke-width:3.60826;stroke-dasharray:none;stroke-opacity:1" /><path
           d="m 130.59798,51.40202 a 56,56 0 0 1 -18.16771,91.33523"
           id="path24579"
           style="stroke:#e69f00;stroke-width:3.60826;stroke-dasharray:none;stroke-opacity:1" /><path
           d="M 91,147 A 56,56 0 0 1 69.569728,142.73725"
           id="path24581"
           style="stroke:#e69f00;stroke-width:3.60826;stroke-dasharray:none;stroke-opacity:1" /><path
           d="M 51.40202,130.59798 A 56,56 0 0 1 35,91"
           id="path24583"
           style="stroke:#e69f00;stroke-width:3.60826;stroke-dasharray:none;stroke-opacity:1" /><path
           d="M 39.262746,69.569728 A 56,56 0 0 1 51.40202,51.40202"
           id="path24585"
           style="stroke:#e69f00;stroke-width:3.60826;stroke-dasharray:none;stroke-opacity:1" /><path
           d="M 50.998943,31.134188 A 72,72 0 0 1 105.0465,20.38346"
           id="path24587"
           style="stroke:#e69f00;stroke-width:3.60826;stroke-dasharray:none;stroke-opacity:1" /><path
           d="m 131.00106,31.134188 a 72,72 0 0 1 19.86475,99.866872"
           id="path24589"
           style="stroke:#e69f00;stroke-width:3.60826;stroke-dasharray:none;stroke-opacity:1" /><path
           d="m 141.91169,141.91169 a 72,72 0 0 1 -90.912747,8.95412"
           id="path24591"
           style="stroke:#e69f00;stroke-width:3.60826;stroke-dasharray:none;stroke-opacity:1" /><path
           d="M 31.134188,131.00106 A 72,72 0 0 1 24.480674,118.55321"
           id="path24593"
           style="stroke:#e69f00;stroke-width:3.60826;stroke-dasharray:none;stroke-opacity:1" /><path
           d="M 20.38346,105.0465 A 72,72 0 0 1 24.480674,63.446793"
           id="path24595"
           style="stroke:#e69f00;stroke-width:3.60826;stroke-dasharray:none;stroke-opacity:1" /><path
           d="M 31.134188,50.998943 A 72,72 0 0 1 40.088312,40.088312"
           id="path24597"
           style="stroke:#e69f00;stroke-width:3.60826;stroke-dasharray:none;stroke-opacity:1" /><path
           d="M 108.16795,4.6908953 A 88,88 0 1 1 91,3"
           id="path24599"
           style="stroke:#e69f00;stroke-width:3.60826;stroke-dasharray:none;stroke-opacity:1" /></g><g
         fill="none"
         stroke="#000000"
         stroke-width="2"
         stroke-linecap="butt"
         id="g24633"
         transform="matrix(0.26458333,0,0,0.26458333,81.439411,450.3902)"
         style="stroke:#e69f00;stroke-width:3.60826;stroke-dasharray:none;stroke-opacity:1"><line
           x1="108.16795"
           y1="4.6908956"
           x2="105.0465"
           y2="20.383459"
           id="line24603"
           style="stroke:#e69f00;stroke-width:3.60826;stroke-dasharray:none;stroke-opacity:1" /><line
           x1="118.55321"
           y1="24.480673"
           x2="106.30733"
           y2="54.044819"
           id="line24605"
           style="stroke:#e69f00;stroke-width:3.60826;stroke-dasharray:none;stroke-opacity:1" /><line
           x1="139.89018"
           y1="17.830673"
           x2="131.00105"
           y2="31.134188"
           id="line24607"
           style="stroke:#e69f00;stroke-width:3.60826;stroke-dasharray:none;stroke-opacity:1" /><line
           x1="141.91168"
           y1="40.08831"
           x2="130.59798"
           y2="51.40202"
           id="line24609"
           style="stroke:#e69f00;stroke-width:3.60826;stroke-dasharray:none;stroke-opacity:1" /><line
           x1="119.28427"
           y1="62.715729"
           x2="107.97057"
           y2="74.029434"
           id="line24611"
           style="stroke:#e69f00;stroke-width:3.60826;stroke-dasharray:none;stroke-opacity:1" /><line
           x1="142.73726"
           y1="69.569725"
           x2="127.95518"
           y2="75.692665"
           id="line24613"
           style="stroke:#e69f00;stroke-width:3.60826;stroke-dasharray:none;stroke-opacity:1" /><line
           x1="119.28427"
           y1="119.28427"
           x2="107.97057"
           y2="107.97057"
           id="line24615"
           style="stroke:#e69f00;stroke-width:3.60826;stroke-dasharray:none;stroke-opacity:1" /><line
           x1="118.55321"
           y1="157.51933"
           x2="106.30733"
           y2="127.95518"
           id="line24617"
           style="stroke:#e69f00;stroke-width:3.60826;stroke-dasharray:none;stroke-opacity:1" /><line
           x1="69.569725"
           y1="142.73726"
           x2="75.692665"
           y2="127.95518"
           id="line24619"
           style="stroke:#e69f00;stroke-width:3.60826;stroke-dasharray:none;stroke-opacity:1" /><line
           x1="28.774603"
           y1="153.2254"
           x2="51.40202"
           y2="130.59798"
           id="line24621"
           style="stroke:#e69f00;stroke-width:3.60826;stroke-dasharray:none;stroke-opacity:1" /><line
           x1="24.480673"
           y1="118.55321"
           x2="39.262745"
           y2="112.43027"
           id="line24623"
           style="stroke:#e69f00;stroke-width:3.60826;stroke-dasharray:none;stroke-opacity:1" /><line
           x1="9.6986008"
           y1="57.323856"
           x2="39.262745"
           y2="69.569725"
           id="line24625"
           style="stroke:#e69f00;stroke-width:3.60826;stroke-dasharray:none;stroke-opacity:1" /><line
           x1="28.774603"
           y1="28.774603"
           x2="40.08831"
           y2="40.08831"
           id="line24627"
           style="stroke:#e69f00;stroke-width:3.60826;stroke-dasharray:none;stroke-opacity:1" /><line
           x1="51.40202"
           y1="51.40202"
           x2="62.715729"
           y2="62.715729"
           id="line24629"
           style="stroke:#e69f00;stroke-width:3.60826;stroke-dasharray:none;stroke-opacity:1" /><line
           x1="63.446793"
           y1="24.480673"
           x2="69.569725"
           y2="39.262745"
           id="line24631"
           style="stroke:#e69f00;stroke-width:3.60826;stroke-dasharray:none;stroke-opacity:1" /></g></g></g></svg>
