<?xml version="1.0" encoding="UTF-8" standalone="no"?>
<!-- Created with Inkscape (http://www.inkscape.org/) -->

<svg
   width="400mm"
   height="280mm"
   viewBox="0 0 400 280"
   version="1.1"
   id="svg5"
   xml:space="preserve"
   inkscape:export-filename="bitmap.png"
   inkscape:export-xdpi="59.878956"
   inkscape:export-ydpi="59.878956"
   inkscape:version="1.2 (dc2aedaf03, 2022-05-15)"
   sodipodi:docname="levels-design1.svg"
   xmlns:inkscape="http://www.inkscape.org/namespaces/inkscape"
   xmlns:sodipodi="http://sodipodi.sourceforge.net/DTD/sodipodi-0.dtd"
   xmlns="http://www.w3.org/2000/svg"
   xmlns:svg="http://www.w3.org/2000/svg"><sodipodi:namedview
     id="namedview7"
     pagecolor="#505050"
     bordercolor="#ffffff"
     borderopacity="1"
     inkscape:showpageshadow="0"
     inkscape:pageopacity="0"
     inkscape:pagecheckerboard="1"
     inkscape:deskcolor="#505050"
     inkscape:document-units="px"
     showgrid="true"
     showborder="false"
     inkscape:zoom="0.35355339"
     inkscape:cx="395.9798"
     inkscape:cy="-186.67619"
     inkscape:window-width="1920"
     inkscape:window-height="986"
     inkscape:window-x="1909"
     inkscape:window-y="-11"
     inkscape:window-maximized="1"
     inkscape:current-layer="layer1" /><defs
     id="defs2"><rect
       x="350.43127"
       y="297.72412"
       width="5.6980696"
       height="12.820656"
       id="rect15066" /></defs><g
     inkscape:label="Layer 1"
     inkscape:groupmode="layer"
     id="layer1"><text
       xml:space="preserve"
       transform="scale(0.26458333)"
       id="text15064"
       style="white-space:pre;shape-inside:url(#rect15066);display:inline;fill:#c8b7b7;fill-opacity:1;stroke-width:13.3569;stroke-dasharray:none" /><path
       id="path20381"
       style="fill:none;fill-opacity:1;stroke-width:5.29166669;stroke-dasharray:none;stroke:#e69f00;stroke-opacity:1"
       d="M -143.13951 -268.98094 A 95.25 95.25 0 0 1 -64.293732 -175.15416 L -64.293732 -175.15416 A 95.25 95.25 0 0 1 -159.54373 -79.90416 A 95.25 95.25 0 0 1 -254.79373 -175.15416 A 95.25 95.25 0 0 1 -175.95073 -268.98045 "
       inkscape:export-filename="..\..\..\..\..\..\..\..\..\Downloads\lvl1.png"
       inkscape:export-xdpi="130.70624"
       inkscape:export-ydpi="130.70624" /><path
       id="path26281"
       style="fill:none;fill-opacity:1;stroke:#e69f00;stroke-width:5.29167;stroke-dasharray:none;stroke-opacity:1"
       d="m -143.13872,-5.1403251 a 46.333025,46.689747 0 0 1 29.92801,43.6651801 v 0 a 46.333025,46.689747 0 0 1 -46.33304,46.689741 46.333025,46.689747 0 0 1 -46.33301,-46.689741 46.333025,46.689747 0 0 1 29.91814,-43.6614078 m 0.0107,138.5884428 a 95.25,95.25 0 0 1 -78.84577,-93.826776 v 0 a 95.25,95.25 0 0 1 95.24999,-95.249999 95.25,95.25 0 0 1 95.250003,95.249999 95.25,95.25 0 0 1 -78.843003,93.826286"
       inkscape:export-filename="..\..\..\..\..\..\..\..\..\Downloads\lvl2.png"
       inkscape:export-xdpi="130.70624"
       inkscape:export-ydpi="130.70624" /><path
       id="path26330"
       style="fill:none;fill-opacity:1;stroke:#e69f00;stroke-width:5.29167;stroke-dasharray:none;stroke-opacity:1"
       d="M 83.741595,12.768214 A 30.461996,30.701549 0 0 1 97.79847,38.637265 v 0 A 30.461996,30.701549 0 0 1 67.336468,69.338796 30.461996,30.701549 0 0 1 36.87448,38.637265 30.461996,30.701549 0 0 1 50.923663,12.773176 M 101.55547,93.803828 A 63.070509,62.572196 42.944367 0 1 25.548668,86.132856 v 0 A 63.070509,62.572196 42.944367 0 1 22.009771,-2.6401485 63.070509,62.572196 42.944367 0 1 110.80803,-5.4747854 63.070509,62.572196 42.944367 0 1 123.91224,69.779236 M -19.426175,-2.1255996 A 95.25,95.25 0 0 1 92.02481,-53.103996 v 0 A 95.25,95.25 0 0 1 158.43432,64.091994 95.25,95.25 0 0 1 41.238318,130.5015 95.25,95.25 0 0 1 -28.173036,29.498262"
       inkscape:export-filename="..\..\..\..\..\..\..\..\..\Downloads\lvl3.png"
       inkscape:export-xdpi="130.70624"
       inkscape:export-ydpi="130.70624" /><circle
       style="fill:#e69f00;fill-opacity:1;stroke-width:6.89599;stroke-dasharray:none"
       id="circle23063-9-5-8"
       cx="294.21667"
       cy="38.893738"
       r="95.25" /><circle
       style="fill:#e69f00;fill-opacity:1;stroke-width:6.89599;stroke-dasharray:none"
       id="circle23063-9-5-8-5"
       cx="547.15833"
       cy="-56.620834"
       r="95.25" /><path
       sodipodi:type="spiral"
       style="fill:#000000;fill-opacity:0;fill-rule:evenodd;stroke:#e69f00;stroke-width:7.23958;stroke-dasharray:none;stroke-opacity:1"
       id="path23150"
       sodipodi:cx="67.204163"
       sodipodi:cy="-176.21249"
       sodipodi:expansion="1.01"
       sodipodi:revolution="3.2812967"
       sodipodi:radius="129.55118"
       sodipodi:argument="-17.769745"
       sodipodi:t0="0"
       d="m 67.204163,-176.21249 c 2.718838,5.08522 -5.553045,6.16835 -8.483182,4.53557 -8.063266,-4.49315 -6.114822,-15.97121 -0.651054,-21.61995 9.826005,-10.15865 26.393026,-6.68766 34.864914,3.32736 12.479159,14.7522 7.315369,37.01753 -7.33514,48.16343 -19.582034,14.89773 -47.732207,7.96966 -61.499627,-11.36062 -17.3643121,-24.38054 -8.638556,-58.49989 15.398673,-74.86509 29.167687,-19.85816 69.303763,-9.3162 88.254533,19.44645 22.3693,33.95117 9.99951,80.13469 -23.50214,101.6643 -38.734355,24.892369 -90.987032,10.686738 -115.091728,-27.56448 -27.424174,-43.51884 -11.376806,-101.85706 31.632577,-128.53478 48.305377,-29.96269 112.742121,-12.06902 141.991811,35.70573 32.50658,53.09437 12.76292,123.64026 -39.78339,155.461535 -57.885962,35.054888 -134.549968,13.45818 -168.942857,-43.865125 -4.35334,-7.2558 -7.984978,-14.94251 -10.832988,-22.9102"
       transform="matrix(0.73093543,0,0,0.73093543,16.363833,-50.988838)"
       inkscape:export-filename="..\..\..\..\..\..\..\..\..\Downloads\lvl4.png"
       inkscape:export-xdpi="151.05304"
       inkscape:export-ydpi="151.05304" /><rect
       style="fill:#000000;fill-opacity:1;stroke:none;stroke-width:7.04295;stroke-dasharray:none;stroke-opacity:1"
       id="rect24360-3-8"
       width="32.808334"
       height="54.504166"
       x="490.05902"
       y="61.965454" /><path
       style="fill:none;fill-opacity:1;stroke:none;stroke-width:5.29167;stroke-dasharray:none;stroke-opacity:1"
       d="m 412.22083,-83.608332 c -1.5875,81.4916654 -1.5875,81.4916654 -1.5875,81.4916654"
       id="path26563" /><path
       style="fill:none;fill-opacity:1;stroke:none;stroke-width:5.45041719;stroke-dasharray:none;stroke-opacity:1"
       d="m 426.50833,-96.837499 1.5875,95.249999"
       id="path26565" /><path
       id="rect26569-5-1-8"
       style="stroke:#e69f00;stroke-width:5.29043;fill:none"
       transform="rotate(79.48179)"
       d="m -130.62523,-408.43155 h 10e-4 v 12.17208 h -10e-4 z m -46.90337,117.67624 -7.7e-4,-6.4e-4 7.81784,-9.32957 7.7e-4,6.5e-4 z m 73.92899,-55.93842 -9e-4,-4.5e-4 5.355665,-10.93052 8.98e-4,4.4e-4 z m 59.613302,3.70508 -2.76e-4,-9.6e-4 11.683349,-3.4145 2.91e-4,9.6e-4 z m -78.247672,16.45141 c 6.62368,-2.10282 6.08728,7.93689 3.50796,11.04963 -7.09793,8.56573 -20.2697,3.73185 -25.76092,-3.98494 -9.87538,-13.87782 -2.11783,-32.74463 11.61288,-40.57976 20.22543,-11.54119 45.471807,-0.52421 55.455587,19.28741 13.344428,26.48044 -1.057729,58.31169 -26.991187,70.37219 -32.70889,15.21143 -71.21758,-2.63405 -85.32069,-34.71633 -17.11324,-38.92987 4.20795,-84.16827 42.45824,-100.29545 45.15033,-19.03635 97.15228,5.78107 115.292579,50.21401 19.29964,47.27267 -3.109257,101.96654 -47.588676,125.50881"
       inkscape:export-filename="..\..\..\..\..\..\..\..\..\Downloads\lvl5.png"
       inkscape:export-xdpi="142.26611"
       inkscape:export-ydpi="142.26611" /></g></svg>
